<?xml version="1.0" standalone="no"?>
<!DOCTYPE svg PUBLIC "-//W3C//DTD SVG 1.1//EN" "http://www.w3.org/Graphics/SVG/1.1/DTD/svg11.dtd" >
<svg xmlns="http://www.w3.org/2000/svg">
<metadata>Generated by IcoMoon</metadata>
<defs>
<font id="interfocus-fill" horiz-adv-x="1024">
<font-face units-per-em="1024" ascent="960" descent="-64" />
<missing-glyph horiz-adv-x="1024" />
<glyph unicode="&#x20;" horiz-adv-x="512" d="" />
<glyph unicode="&#xe900;" glyph-name="add" d="M853.331 960h-682.664c-45.264 0-88.673-17.981-120.68-49.987s-49.987-75.416-49.987-120.68v-682.664c0-45.267 17.981-88.678 49.987-120.685 32.006-32 75.416-49.984 120.68-49.984h682.664c45.267 0 88.678 17.984 120.685 49.984 32 32.006 49.984 75.418 49.984 120.685v682.664c0 45.264-17.984 88.673-49.984 120.68-32.006 32.006-75.418 49.987-120.685 49.987v0zM793.6 439.467c0-9.053-3.597-17.735-9.997-24.136s-15.085-9.997-24.134-9.997h-204.802v-204.802c0-9.050-3.596-17.734-9.997-24.134s-15.084-9.997-24.136-9.997h-17.066c-9.053 0-17.735 3.597-24.136 9.997s-9.997 15.085-9.997 24.134v204.802h-204.8c-9.053 0-17.734 3.596-24.136 9.997s-9.997 15.084-9.997 24.136v17.066c0 9.053 3.596 17.735 9.997 24.136s15.083 9.997 24.136 9.997h204.8v204.8c0 9.053 3.596 17.734 9.997 24.136s15.084 9.997 24.136 9.997h17.066c4.483 0 8.921-0.883 13.062-2.598s7.904-4.23 11.074-7.399c3.169-3.169 5.684-6.932 7.399-11.074s2.598-8.579 2.598-13.062v-204.8h204.802c9.050 0 17.734-3.596 24.134-9.997s9.997-15.084 9.997-24.136v-17.066z" />
<glyph unicode="&#xe901;" glyph-name="app" d="M363.947 652.373h-278.614c-46.933 0-85.333-38.4-85.333-85.333v-545.709c0-46.931 38.4-85.331 85.333-85.331h278.614c46.933 0 85.333 38.4 85.333 85.331v545.709c0 46.933-38.4 85.333-85.333 85.333v0zM406.613 21.331c0-23.462-19.2-42.662-42.666-42.662h-278.614c-23.466 0-42.666 19.2-42.666 42.662v545.709c0 23.466 19.2 42.666 42.666 42.666h8.534l52.053-56.32c6.4-6.826 17.067-10.666 29.013-10.666h99.414c11.946 0 22.613 4.266 29.013 10.666l52.053 56.32h8.534c23.466 0 42.666-19.2 42.666-42.666v-545.709zM360.533 587.948h-2.986l-37.12-45.654c-7.68-8.106-20.907-12.8-34.987-12.8h-119.040c-14.080 0-27.307 4.694-34.56 12.8l-39.68 45.654h-3.413c-16.64 0-30.294-13.654-30.294-30.72v-526.508c0-16.64 13.654-30.291 30.294-30.291h271.786c16.64 0 30.294 13.651 30.294 30.291v526.508c0 17.066-13.654 30.72-30.294 30.72v0zM938.669 960h-572.589c-46.933 0-85.333-38.4-85.333-85.333v-170.667h101.12c62.293 0 112.64-50.347 112.64-112.64v-486.829h465.493v-83.2c0-11.942-9.389-21.331-21.331-21.331h-442.456v-20.48c0.427-16.211-5.546-32.429-17.92-43.52h460.376c47.36 0 85.331 38.4 85.331 85.331v853.336c0 46.933-37.971 85.333-85.331 85.333zM960 820.48h-615.253v54.187c0 11.946 9.386 21.333 21.333 21.333h572.589c11.942 0 21.331-9.387 21.331-21.333v-54.187zM684.8 52.051c0 17.92-14.509 32.858-32.851 32.858-18.349 0-32.856-14.509-32.856-32.858 0-18.342 14.507-32.851 32.856-32.851 18.342 0 32.851 14.509 32.851 32.851z" />
<glyph unicode="&#xe902;" glyph-name="arrow-down" d="M0 106.669v682.664c0 45.264 17.981 88.673 49.987 120.68s75.416 49.987 120.68 49.987h682.664c45.267 0 88.678-17.981 120.685-49.987 32-32.006 49.984-75.416 49.984-120.68v-682.664c0-45.267-17.984-88.678-49.984-120.685-32.006-32-75.418-49.984-120.685-49.984h-682.664c-45.264 0-88.674 17.984-120.68 49.984-32.006 32.006-49.987 75.418-49.987 120.685v0zM535.893 327.68l181.336 180.48c3.213 3.139 5.76 6.889 7.507 11.029 1.741 4.14 2.637 8.586 2.637 13.078s-0.896 8.938-2.637 13.078c-1.747 4.14-4.294 7.889-7.507 11.028l-12.378 11.947c-3.136 3.212-6.886 5.765-11.027 7.508s-8.589 2.64-13.075 2.64c-4.493 0-8.941-0.897-13.082-2.64s-7.885-4.296-11.027-7.508l-144.64-144.213-145.067 144.213c-3.139 3.212-6.889 5.765-11.028 7.508s-8.586 2.64-13.078 2.64c-4.492 0-8.938-0.897-13.078-2.64s-7.89-4.296-11.029-7.508l-12.373-11.947c-3.213-3.139-5.765-6.889-7.508-11.028s-2.641-8.586-2.641-13.078c0-4.492 0.898-8.938 2.641-13.078s4.295-7.89 7.508-11.029l181.333-180.48c3.139-3.212 6.889-5.765 11.029-7.508 4.14-1.74 8.586-2.643 13.078-2.643s8.938 0.902 13.078 2.643c4.14 1.743 7.889 4.296 11.028 7.508v0z" />
<glyph unicode="&#xe903;" glyph-name="arrow-left" d="M170.667 960h682.664c45.267 0 88.678-17.981 120.685-49.987 32-32.006 49.984-75.416 49.984-120.68v-682.664c0-45.267-17.984-88.678-49.984-120.685-32.006-32-75.418-49.984-120.685-49.984h-682.664c-45.264 0-88.673 17.984-120.68 49.984-32.006 32.006-49.987 75.418-49.987 120.685v682.664c0 45.264 17.981 88.673 49.987 120.68s75.416 49.987 120.68 49.987v0zM391.68 424.107l180.48-181.336c3.139-3.213 6.889-5.76 11.029-7.507 4.14-1.741 8.586-2.637 13.078-2.637s8.938 0.896 13.078 2.637c4.14 1.747 7.889 4.294 11.028 7.507l11.947 12.378c3.212 3.136 5.765 6.886 7.508 11.027 1.74 4.141 2.643 8.589 2.643 13.075 0 4.493-0.902 8.941-2.643 13.082-1.743 4.141-4.296 7.885-7.508 11.027l-144.213 144.64 144.213 145.067c3.212 3.139 5.765 6.889 7.508 11.028 1.74 4.14 2.643 8.586 2.643 13.078s-0.902 8.938-2.643 13.078c-1.743 4.14-4.296 7.89-7.508 11.029l-11.947 12.373c-3.139 3.213-6.889 5.765-11.028 7.508s-8.586 2.641-13.078 2.641c-4.492 0-8.938-0.898-13.078-2.641s-7.89-4.295-11.029-7.508l-180.48-181.333c-3.212-3.139-5.765-6.889-7.508-11.029s-2.64-8.586-2.64-13.078c0-4.492 0.897-8.938 2.64-13.078s4.296-7.889 7.508-11.028v0z" />
<glyph unicode="&#xe904;" glyph-name="arrow-right" d="M853.331 960h-682.664c-45.264 0-88.673-17.981-120.68-49.987s-49.987-75.416-49.987-120.68v-682.664c0-45.267 17.981-88.678 49.987-120.685 32.006-32 75.416-49.984 120.68-49.984h682.664c45.267 0 88.678 17.984 120.685 49.984 32 32.006 49.984 75.418 49.984 120.685v682.664c0 45.264-17.984 88.673-49.984 120.68-32.006 32.006-75.418 49.987-120.685 49.987v0zM632.32 424.107l-180.48-181.336c-3.139-3.213-6.889-5.76-11.029-7.507-4.14-1.741-8.586-2.637-13.078-2.637s-8.938 0.896-13.078 2.637c-4.14 1.747-7.889 4.294-11.028 7.507l-11.947 12.378c-3.212 3.136-5.765 6.886-7.508 11.027s-2.64 8.589-2.64 13.075c0 4.493 0.897 8.941 2.64 13.082s4.296 7.885 7.508 11.027l144.213 144.64-144.213 145.067c-3.212 3.139-5.765 6.889-7.508 11.028s-2.64 8.586-2.64 13.078c0 4.492 0.897 8.938 2.64 13.078s4.296 7.89 7.508 11.029l11.947 12.373c3.139 3.213 6.889 5.765 11.028 7.508s8.586 2.641 13.078 2.641c4.492 0 8.938-0.898 13.078-2.641s7.89-4.295 11.029-7.508l180.48-181.333c3.212-3.139 5.765-6.889 7.508-11.029 1.74-4.14 2.643-8.586 2.643-13.078s-0.902-8.938-2.643-13.078c-1.743-4.14-4.296-7.889-7.508-11.028v0z" />
<glyph unicode="&#xe905;" glyph-name="arrow-up" d="M0 789.333v-682.664c0-45.267 17.981-88.678 49.987-120.685 32.006-32 75.416-49.984 120.68-49.984h682.664c45.267 0 88.678 17.984 120.685 49.984 32 32.006 49.984 75.418 49.984 120.685v682.664c0 45.264-17.984 88.674-49.984 120.68-32.006 32.006-75.418 49.987-120.685 49.987h-682.664c-45.264 0-88.674-17.981-120.68-49.987s-49.987-75.416-49.987-120.68v0zM535.893 568.32l181.336-180.48c3.213-3.139 5.76-6.889 7.507-11.029 1.741-4.14 2.637-8.586 2.637-13.078s-0.896-8.938-2.637-13.078c-1.747-4.14-4.294-7.889-7.507-11.028l-12.378-11.947c-3.136-3.212-6.886-5.765-11.027-7.508-4.141-1.74-8.589-2.643-13.075-2.643-4.493 0-8.941 0.902-13.082 2.643-4.141 1.743-7.885 4.296-11.027 7.508l-144.64 144.213-145.067-144.213c-3.139-3.212-6.889-5.765-11.028-7.508-4.14-1.74-8.586-2.643-13.078-2.643s-8.938 0.902-13.078 2.643c-4.14 1.743-7.89 4.296-11.029 7.508l-12.373 11.947c-3.213 3.139-5.765 6.889-7.508 11.028s-2.641 8.586-2.641 13.078c0 4.492 0.898 8.938 2.641 13.078s4.295 7.89 7.508 11.029l181.333 180.48c3.139 3.212 6.889 5.765 11.029 7.508s8.586 2.64 13.078 2.64c4.492 0 8.938-0.897 13.078-2.64s7.889-4.296 11.028-7.508v0z" />
<glyph unicode="&#xe906;" glyph-name="audit" d="M633.173 486.4c-31.54 0.007-62.375-9.332-88.611-26.84s-46.694-42.396-58.792-71.523c-12.099-29.128-15.294-61.187-9.183-92.127 6.111-30.944 21.255-59.386 43.519-81.722 30.451-28.934 70.85-45.069 112.854-45.069s82.4 16.134 112.851 45.069c22.24 22.31 37.376 50.714 43.501 81.613 6.125 30.904 2.963 62.929-9.082 92.039s-32.435 54.003-58.605 71.542c-26.17 17.539-56.947 26.94-88.452 27.017v0zM853.331 960h-682.664c-45.264 0-88.673-17.981-120.68-49.987s-49.987-75.416-49.987-120.68v-682.664c0-45.267 17.981-88.678 49.987-120.685 32.006-32 75.416-49.984 120.68-49.984h682.664c34.803 0.083 68.749 10.803 97.28 30.72l-185.6 185.171c-44.627-33.818-100.435-49.44-156.14-43.699-55.704 5.747-107.151 32.416-143.947 74.63s-56.195 96.819-54.278 152.786c1.917 55.966 25.007 109.118 64.604 148.716s92.749 62.687 148.716 64.604c55.965 1.917 110.576-17.482 152.784-54.278 42.214-36.796 68.89-88.244 74.63-143.948 5.741-55.707-9.875-111.508-43.699-156.142l185.6-185.6c20 28.653 30.726 62.758 30.72 97.709v682.664c0 45.264-17.984 88.673-49.984 120.68-32.006 32.006-75.418 49.987-120.685 49.987v0zM421.12 514.987h-261.547c-8.486 0-16.626 3.371-22.627 9.372s-9.373 14.141-9.373 22.628c0 8.486 3.372 16.626 9.373 22.627s14.141 9.373 22.627 9.373h261.547c8.487 0 16.627-3.372 22.627-9.373s9.373-14.141 9.373-22.627c0-8.487-3.372-16.627-9.373-22.628s-14.14-9.372-22.627-9.372zM501.333 635.307h-341.333c-8.487 0-16.627 3.371-22.627 9.372s-9.373 14.141-9.373 22.628c0 8.486 3.372 16.626 9.373 22.627s14.14 9.373 22.627 9.373h341.333c8.487 0 16.627-3.372 22.628-9.373s9.372-14.141 9.372-22.627c0-8.487-3.372-16.627-9.372-22.628s-14.141-9.372-22.628-9.372v0zM682.669 757.76h-523.096c-8.486 0-16.626 3.372-22.627 9.373s-9.373 14.14-9.373 22.627c0 8.487 3.372 16.627 9.373 22.627s14.141 9.373 22.627 9.373h523.096c8.486 0 16.627-3.372 22.624-9.373 6.003-6.001 9.376-14.14 9.376-22.627s-3.373-16.627-9.376-22.627c-5.997-6.001-14.138-9.373-22.624-9.373v0z" />
<glyph unicode="&#xe907;" glyph-name="bill" d="M328.106 576c10.135 9.905 23.421 15.944 37.547 17.067v-110.507c-14.036 3.885-27.016 10.885-37.973 20.48-4.573 4.551-8.118 10.028-10.4 16.062s-3.245 12.487-2.827 18.925c-0.644 13.964 4.264 27.616 13.653 37.973zM439.040 400.64c4.599-4.351 8.172-9.672 10.46-15.576s3.233-12.243 2.767-18.557c0.464-13.681-4.435-27.001-13.653-37.12-9.621-11.006-23.017-18.008-37.547-19.627v110.933c13.933-3.925 26.876-10.76 37.974-20.053v0zM170.667 960c-45.264 0-88.673-17.981-120.68-49.987s-49.987-75.416-49.987-120.68v-774.402l60.16-72.531c1.601-1.965 3.618-3.546 5.905-4.634 2.288-1.082 4.788-1.645 7.322-1.645s5.033 0.563 7.321 1.645c2.288 1.088 4.305 2.669 5.905 4.634l46.507 56.749c1.642 1.894 3.673 3.418 5.955 4.461s4.762 1.581 7.272 1.581c2.509 0 4.989-0.538 7.271-1.581s4.313-2.566 5.955-4.461l46.934-56.749c1.6-1.965 3.617-3.546 5.905-4.634 2.288-1.082 4.788-1.645 7.321-1.645s5.034 0.563 7.322 1.645c2.287 1.088 4.305 2.669 5.905 4.634l46.507 56.749c1.642 1.894 3.673 3.418 5.955 4.461s4.762 1.581 7.271 1.581c2.509 0 4.989-0.538 7.272-1.581s4.313-2.566 5.955-4.461l46.933-56.749c1.601-1.965 3.618-3.546 5.906-4.634 2.287-1.082 4.788-1.645 7.321-1.645s5.034 0.563 7.321 1.645c2.288 1.088 4.305 2.669 5.906 4.634l47.36 56.749c1.642 1.894 3.673 3.418 5.955 4.461s4.762 1.581 7.271 1.581c2.509 0 4.989-0.538 7.272-1.581s4.313-2.566 5.955-4.461l46.933-57.178c1.601-1.958 3.618-3.546 5.906-4.627 2.287-1.088 4.788-1.651 7.321-1.651s5.034 0.563 7.321 1.651c2.288 1.082 4.305 2.669 5.906 4.627l46.506 57.6c1.642 1.901 3.674 3.424 5.956 4.467 2.282 1.037 4.762 1.581 7.271 1.581s4.989-0.544 7.271-1.581c2.282-1.043 4.314-2.566 5.956-4.467l46.504-57.6c1.6-1.958 3.622-3.546 5.907-4.627 2.291-1.088 4.787-1.651 7.322-1.651s5.030 0.563 7.322 1.651c2.285 1.082 4.307 2.669 5.907 4.627l33.28 40.538v826.024c-0.134 31.779 8.838 62.931 25.85 89.772s41.357 48.25 70.15 61.695h-631.042zM501.76 320c-9.217-17.344-22.733-32.038-39.253-42.669-18.659-11.264-39.706-17.984-61.44-19.622v-42.669h-35.414v42.669c-30.323 1.792-59.3 13.146-82.773 32.422-10.514 8.826-18.837 19.968-24.316 32.556-5.478 12.586-7.963 26.271-7.258 39.98h66.56c0.52-12.784 5.159-25.057 13.226-34.987 9.024-9.894 21.276-16.243 34.56-17.92v120.32c-20.208 4.408-40.038 10.4-59.306 17.92-15.574 6.379-29.136 16.845-39.254 30.293-11.446 16.625-17.003 36.6-15.786 56.747-0.422 14.048 2.179 28.022 7.626 40.977s13.614 24.59 23.947 34.116c22.93 20.485 52.085 32.658 82.773 34.56v42.667h35.414v-42.667c28.357-1.403 55.478-12.041 77.226-30.293 10.003-8.916 18.134-19.731 23.92-31.817s9.113-25.201 9.787-38.583h-67.413c-0.881 11.215-5.372 21.844-12.8 30.293-8.107 9.133-18.836 15.54-30.72 18.347v-117.76c20.214-4.569 40.043-10.703 59.306-18.347 15.366-6.532 28.753-16.977 38.827-30.293 11.444-16.465 17.006-36.306 15.787-56.32-0.052-17.5-4.608-34.691-13.227-49.92v0zM882.771 937.387c-18.822-0.278-37.414-4.262-54.701-11.725s-32.934-18.258-46.048-31.768c-13.114-13.511-23.437-29.473-30.381-46.974-6.95-17.501-10.374-36.2-10.093-55.027v-354.56h282.451v354.56c0.282 18.827-3.149 37.525-10.093 55.027s-17.267 33.463-30.381 46.974c-13.114 13.511-28.762 24.305-46.048 31.768-17.293 7.463-35.878 11.447-54.707 11.725v0z" />
<glyph unicode="&#xe908;" glyph-name="bookmark" d="M884.051-57.171l-351.998 262.822c-11.947 8.96-28.587 8.96-40.96 0l-351.147-262.4c-22.613-17.062-54.613-0.851-54.613 27.309v898.987c0 49.92 32 90.453 71.253 90.453h710.825c39.258 0 71.258-40.533 71.258-90.453v-899.416c0-28.16-32-43.942-54.618-27.302z" />
<glyph unicode="&#xe909;" glyph-name="box" d="M383.572 218.029l-295.253 195.411v-187.731c-0.18-15.027 3.299-29.875 10.138-43.251 6.838-13.382 16.831-24.896 29.116-33.549l290.133-186.029c24.642-16.243 53.278-25.395 82.774-26.451v419.411l-58.88-121.599c-2.362-5.242-5.844-9.894-10.203-13.638-4.358-3.75-9.485-6.49-15.020-8.038-5.535-1.542-11.341-1.856-17.009-0.915-5.668 0.947-11.060 3.123-15.795 6.381zM603.732 932.693c-27.5 17.644-59.487 27.023-92.16 27.023s-64.66-9.379-92.16-27.023c0 0-300.373-186.453-304.213-189.44l402.346-264.96 389.974 264.96c-3.84 2.987-303.788 189.44-303.788 189.44zM580.693 234.24l-47.787 119.466v-418.135c25.22 3.155 49.419 11.898 70.827 25.6l291.838 187.738c12.979 8.301 23.674 19.718 31.123 33.203s11.418 28.614 11.546 44.019v188.162l-298.667-195.413c-4.702-3.443-10.111-5.792-15.834-6.88-5.723-1.094-11.617-0.896-17.254 0.576s-10.877 4.179-15.338 7.923c-4.461 3.75-8.033 8.442-10.454 13.741v0zM428.374 265.389l54.186 109.651c9 23.356 15.16 47.708 18.347 72.534 0.384 3.212-0.131 6.468-1.487 9.406s-3.5 5.442-6.193 7.234l-389.12 256-99.413-179.627c-4.886-8.273-6.415-18.103-4.272-27.469s7.795-17.553 15.792-22.878l362.24-239.359c4.148-2.65 8.813-4.384 13.685-5.082 4.872-0.704 9.837-0.352 14.563 1.018 4.726 1.376 9.104 3.744 12.842 6.944s6.748 7.168 8.83 11.629v0zM1019.309 540.587l-99.84 179.2-378.028-256c-2.581-1.876-4.614-4.408-5.889-7.334s-1.746-6.138-1.364-9.306c2.832-26.47 8.702-52.525 17.493-77.653l42.667-101.123c1.997-4.64 4.975-8.794 8.73-12.173s8.197-5.907 13.022-7.411c4.825-1.498 9.917-1.933 14.927-1.28s9.818 2.387 14.093 5.082l362.669 237.652c7.994 5.325 13.645 13.512 15.789 22.877s0.614 19.197-4.269 27.469z" />
<glyph unicode="&#xe90a;" glyph-name="cancelar" d="M874.24 810.24c-83.712 83.802-193.888 135.989-311.757 147.668-117.871 11.679-236.147-17.872-334.673-83.618s-171.21-163.62-205.667-276.947c-34.457-113.326-28.555-235.094 16.7-344.556 45.255-109.466 127.063-199.853 231.487-255.757 104.424-55.91 225.002-73.888 341.192-50.861 116.191 23.021 220.799 85.619 296.012 177.126 75.213 91.501 116.371 206.255 116.467 324.704 0.051 67.256-13.146 133.865-38.842 196.019s-63.386 118.637-110.918 166.221v0zM717.229 303.36c6.381-6.4 9.965-15.066 9.965-24.109 0-9.037-3.584-17.709-9.965-24.102l-12.378-12.378c-6.394-6.381-15.066-9.965-24.102-9.965-9.043 0-17.709 3.584-24.109 9.965l-144.64 145.069-144.64-145.069c-6.399-6.381-15.068-9.965-24.107-9.965s-17.708 3.584-24.106 9.965l-12.374 12.378c-6.383 6.394-9.968 15.066-9.968 24.102 0 9.043 3.585 17.709 9.968 24.109l145.067 144.64-145.067 144.64c-6.383 6.399-9.968 15.068-9.968 24.107s3.585 17.708 9.968 24.106l12.374 12.374c6.399 6.383 15.068 9.968 24.106 9.968s17.708-3.585 24.107-9.968l144.64-145.067 144.64 145.067c6.4 6.383 15.066 9.968 24.109 9.968 9.037 0 17.709-3.585 24.102-9.968l12.378-12.374c6.381-6.399 9.965-15.068 9.965-24.106s-3.584-17.708-9.965-24.107l-145.069-144.64 145.069-144.64z" />
<glyph unicode="&#xe90b;" glyph-name="change" d="M447.573 466.348h-364.8c-45.714 0-82.773-37.059-82.773-82.773v-364.803c0-45.709 37.059-82.771 82.773-82.771h364.8c45.715 0 82.774 37.062 82.774 82.771v364.803c0 45.715-37.059 82.773-82.774 82.773zM941.229 960h-364.802c-45.715 0-82.774-37.059-82.774-82.773v-364.8c0-45.715 37.059-82.774 82.774-82.774h364.802c45.715 0 82.771 37.059 82.771 82.774v364.8c0 45.714-37.056 82.773-82.771 82.773zM193.707 522.667h29.44c2.277-0.057 4.542 0.342 6.662 1.174s4.052 2.081 5.683 3.671c1.63 1.59 2.925 3.491 3.81 5.59s1.339 4.354 1.338 6.632v42.666c-0.037 31.051 10.445 61.199 29.739 85.528s46.259 41.406 76.501 48.445v-17.494c-0.063-3.452 0.829-6.855 2.575-9.834s4.281-5.419 7.324-7.050c3.043-1.632 6.477-2.393 9.925-2.199s6.775 1.334 9.616 3.297l85.334 55.893c2.64 1.752 4.806 4.129 6.304 6.921s2.282 5.91 2.282 9.079c0 3.169-0.784 6.287-2.282 9.079s-3.664 5.169-6.304 6.921l-85.334 55.893c-2.841 1.963-6.168 3.104-9.616 3.297s-6.882-0.567-9.925-2.199c-3.043-1.631-5.578-4.071-7.324-7.050s-2.637-6.382-2.575-9.834v-29.867c-47.418-7.318-90.664-31.326-121.953-67.699s-48.563-82.722-48.713-130.701v-42.667c-0.059-2.313 0.353-4.614 1.212-6.763s2.145-4.1 3.78-5.737c1.636-1.636 3.588-2.923 5.738-3.781s4.449-1.271 6.763-1.212v0zM832 376.748h-29.44c-4.64 0-9.088-1.843-12.371-5.124-3.277-3.281-5.12-7.731-5.12-12.37v-42.665c0.858-8.23 0.858-16.525 0-24.749-0.602-3.194-1.459-6.33-2.56-9.389 0-4.691-2.138-8.96-3.84-13.651-1.498-4.134-3.354-8.134-5.549-11.949-1.165-2.963-2.592-5.818-4.269-8.531-2.733-4.71-5.728-9.267-8.96-13.651l-3.84-4.698c-3.93-4.851-8.211-9.414-12.8-13.651l-2.56-2.56c-5.286-4.454-10.848-8.589-16.64-12.371-6.266-3.923-12.826-7.341-19.622-10.24v0c-7.027-3.053-14.31-5.485-21.76-7.258v0 17.498c-0.006 3.43-0.934 6.797-2.682 9.747-1.747 2.957-4.25 5.389-7.258 7.040-3.008 1.658-6.4 2.477-9.83 2.374s-6.771-1.12-9.67-2.95l-85.335-56.32c-2.641-1.754-4.806-4.128-6.305-6.918s-2.282-5.914-2.282-9.082c0-3.168 0.784-6.285 2.282-9.082 1.498-2.79 3.664-5.165 6.305-6.918l85.335-55.891c2.867-1.811 6.17-2.829 9.568-2.95 3.392-0.122 6.758 0.659 9.747 2.266 2.995 1.606 5.51 3.974 7.283 6.867 1.779 2.893 2.758 6.208 2.842 9.6v29.869c35.053 5.568 68.019 20.288 95.571 42.669 8.435 6.874 16.288 14.432 23.469 22.611l3.84 5.12c6.016 7.174 11.578 14.733 16.64 22.611 2.099 3.565 3.955 7.277 5.542 11.098 3.84 6.605 7.258 13.446 10.24 20.48 2.138 5.971 3.84 12.8 5.549 19.2s3.411 10.24 4.269 15.36c2.214 12.39 3.354 24.954 3.411 37.542v42.669c0.211 2.538-0.147 5.091-1.050 7.471s-2.323 4.53-4.166 6.289c-1.843 1.759-4.051 3.084-6.47 3.878s-4.986 1.036-7.514 0.708z" />
<glyph unicode="&#xe90c;" glyph-name="check" d="M326.826 84.48l-307.626 310.186c-6.102 6.067-10.944 13.28-14.248 21.225s-5.005 16.464-5.005 25.069c0 8.604 1.701 17.124 5.005 25.069s8.147 15.158 14.248 21.224l44.8 45.653c12.453 12.273 29.235 19.153 46.72 19.153s34.266-6.88 46.72-19.153l215.893-218.026 493.228 497.493c6.112 6.179 13.382 11.085 21.408 14.433 8.019 3.348 16.621 5.072 25.312 5.072s17.293-1.724 25.312-5.072c8.019-3.348 15.296-8.253 21.408-14.433l44.8-45.653c6.086-6.031 10.918-13.208 14.221-21.117 3.296-7.909 4.998-16.394 4.998-24.963s-1.702-17.055-4.998-24.964c-3.302-7.909-8.134-15.086-14.221-21.116l-584.534-590.080c-6.111-6.182-13.386-11.085-21.406-14.432s-16.623-5.075-25.314-5.075c-8.69 0-17.294 1.728-25.314 5.075s-15.295 8.25-21.406 14.432z" />
<glyph unicode="&#xe916;" glyph-name="close" d="M993.709 929.707c-9.562 9.624-20.928 17.261-33.446 22.473-12.525 5.212-25.952 7.895-39.514 7.895-13.568 0-26.995-2.683-39.514-7.895-12.525-5.212-23.891-12.85-33.446-22.473l-335.789-335.787-335.787 335.787c-9.557 9.624-20.924 17.261-33.446 22.473s-25.951 7.895-39.514 7.895c-13.563 0-26.992-2.683-39.514-7.895s-23.889-12.85-33.446-22.473v0c-9.624-9.557-17.261-20.924-22.473-33.446s-7.895-25.951-7.895-39.514c0-13.563 2.683-26.992 7.895-39.514s12.85-23.889 22.473-33.446l335.787-335.786-335.787-335.789c-9.624-9.555-17.261-20.922-22.473-33.446-5.212-12.518-7.895-25.946-7.895-39.514 0-13.562 2.683-26.989 7.895-39.514 5.212-12.518 12.85-23.885 22.473-33.446v0c9.557-9.619 20.924-17.261 33.446-22.47 12.522-5.216 25.951-7.898 39.514-7.898s26.993 2.682 39.514 7.898c12.522 5.21 23.889 12.851 33.446 22.47l335.787 335.789 335.789-335.789c9.555-9.619 20.922-17.261 33.446-22.47 12.518-5.216 25.946-7.898 39.514-7.898 13.562 0 26.989 2.682 39.514 7.898 12.518 5.21 23.885 12.851 33.446 22.47v0c9.619 9.562 17.261 20.928 22.47 33.446 5.216 12.525 7.898 25.952 7.898 39.514 0 13.568-2.682 26.995-7.898 39.514-5.21 12.525-12.851 23.891-22.47 33.446l-335.789 335.789 335.789 335.786c9.619 9.558 17.261 20.925 22.47 33.446 5.216 12.522 7.898 25.951 7.898 39.514s-2.682 26.993-7.898 39.514c-5.21 12.522-12.851 23.889-22.47 33.446v0z" />
<glyph unicode="&#xe918;" glyph-name="contract" d="M123.308 21.331l100.267 885.763-192.853-24.747c-4.534-0.474-8.928-1.852-12.921-4.051s-7.505-5.177-10.329-8.756c-2.824-3.58-4.902-7.688-6.111-12.084s-1.527-8.989-0.932-13.509l113.92-873.816c1.272-9.152 6.114-17.427 13.468-23.027 7.355-5.594 16.624-8.051 25.785-6.835l174.080 22.182-170.666 18.349c-9.73 1.178-18.641 6.035-24.908 13.568-6.267 7.539-9.415 17.184-8.799 26.963v0zM1008.64 602.878l-192.851 21.76c-5.843 0.708-11.475 2.616-16.538 5.604-5.069 2.988-9.466 6.993-12.909 11.761-3.45 4.768-5.869 10.197-7.117 15.947s-1.293 11.694-0.134 17.461l48.64 206.934c0.506 2.529 0.442 5.139-0.179 7.642-0.627 2.502-1.792 4.836-3.424 6.834s-3.686 3.61-6.010 4.722c-2.33 1.112-4.87 1.695-7.45 1.708l-506.029 56.747c-4.552 0.657-9.191 0.386-13.636-0.795s-8.606-3.248-12.232-6.078c-3.627-2.829-6.644-6.363-8.87-10.387s-3.617-8.458-4.088-13.034l-99.84-875.945c-0.471-4.544-0.037-9.133 1.277-13.51 1.314-4.371 3.482-8.442 6.378-11.974s6.463-6.451 10.495-8.595c4.033-2.144 8.45-3.469 12.996-3.898l715.52-79.782c4.602-0.595 9.274-0.275 13.747 0.954s8.659 3.328 12.307 6.189c3.654 2.861 6.701 6.413 8.966 10.464 2.266 4.045 3.706 8.506 4.23 13.114l72.109 617.385c0.365 4.508-1.037 8.981-3.898 12.481s-6.97 5.755-11.462 6.292zM831.571 652.798l170.669-19.2c2.451-0.404 4.966-0.086 7.238 0.915s4.205 2.642 5.562 4.723c1.357 2.081 2.080 4.511 2.080 6.995s-0.723 4.915-2.080 6.995l-136.531 213.333c-1.376 2.292-3.418 4.114-5.85 5.224s-5.146 1.457-7.776 0.995c-2.637-0.462-5.069-1.711-6.976-3.583s-3.206-4.278-3.718-6.902l-43.52-180.907c-0.749-3.274-0.781-6.669-0.102-9.956 0.685-3.288 2.061-6.391 4.038-9.1 1.984-2.71 4.525-4.963 7.45-6.607s6.176-2.641 9.517-2.924v0z" />
<glyph unicode="&#xe919;" glyph-name="copy" d="M647.251 782.933h-476.584c-94.257 0-170.667-76.41-170.667-170.667v-505.597c0-94.259 76.41-170.669 170.667-170.669h476.584c94.259 0 170.669 76.41 170.669 170.669v505.597c0 94.257-76.41 170.667-170.669 170.667zM853.331 960h-476.584c-39.033-0.008-76.884-13.395-107.242-37.93s-51.388-58.734-59.585-96.897h461.229c49.786 0 97.536-19.779 132.742-54.986 35.213-35.207 54.989-82.957 54.989-132.748v-523.949c44.294 1.44 86.291 20.058 117.107 51.91s48.038 74.438 48.013 118.758v505.173c0 45.264-17.984 88.673-49.99 120.68-32 32.006-75.411 49.987-120.678 49.987v0z" />
<glyph unicode="&#xe91a;" glyph-name="credit-card" d="M936.090 576h-784.177c-23.316 0-45.677-9.681-62.163-26.913s-25.749-40.605-25.749-64.975v-456.221c0-24.371 9.262-47.744 25.749-64.979 16.486-17.229 38.847-26.912 62.163-26.912h784.177c23.315 0 45.677 9.683 62.163 26.912 16.486 17.235 25.747 40.608 25.747 64.979v456.221c0 24.37-9.261 47.742-25.747 64.975s-38.848 26.913-62.163 26.913zM264 45.805h-129.67c-5.794 0.122-11.318 2.579-15.416 6.861s-6.449 10.054-6.562 16.115c0 6.093 2.316 11.936 6.438 16.243s9.711 6.726 15.54 6.726h129.67c5.829 0 11.419-2.419 15.541-6.726s6.437-10.15 6.437-16.243c-0.113-6.061-2.465-11.834-6.562-16.115s-9.622-6.739-15.416-6.861zM168.616 287.014c-9.327 0-18.271 3.872-24.865 10.765s-10.3 16.243-10.3 25.988v83.158c0.56 9.345 4.511 18.113 11.046 24.517s15.162 9.959 24.12 9.941h156.923c4.634 0.061 9.233-0.847 13.526-2.673s8.193-4.53 11.47-7.955c3.277-3.426 5.866-7.502 7.612-11.989s2.616-9.295 2.557-14.138v-83.159c0-9.745-3.705-19.096-10.3-25.988s-15.539-10.765-24.865-10.765l-156.923 2.298zM481.143 45.805h-128.352c-5.828 0-11.419 2.419-15.54 6.733-4.122 4.307-6.437 10.15-6.437 16.243s2.316 11.936 6.437 16.243c4.122 4.307 9.712 6.726 15.54 6.726h129.231c5.829 0 11.42-2.419 15.541-6.726s6.437-10.15 6.437-16.243c-0.113-6.061-2.464-11.834-6.562-16.115s-9.622-6.739-15.416-6.861h-0.879zM700.922 45.805h-130.108c-5.829 0-11.42 2.419-15.541 6.733-4.122 4.307-6.437 10.15-6.437 16.243s2.316 11.936 6.437 16.243c4.122 4.307 9.712 6.726 15.541 6.726h129.231c5.83 0 11.418-2.419 15.539-6.726s6.438-10.15 6.438-16.243c0-6.093-2.317-11.936-6.438-16.243-4.122-4.314-9.709-6.733-15.539-6.733h0.877zM920.704 45.805h-131.866c-5.83 0-11.424 2.419-15.546 6.733-4.122 4.307-6.438 10.15-6.438 16.243s2.317 11.936 6.438 16.243c4.122 4.307 9.715 6.726 15.546 6.726h129.229c5.83 0 11.418-2.419 15.539-6.726s6.438-10.15 6.438-16.243c0-6.093-2.317-11.936-6.438-16.243-4.122-4.314-9.709-6.733-15.539-6.733h2.637zM26.87 281.798l37.13-25.798v128l-12.151-4.961c-28.006-11.814-46.066-28.3-50.68-46.265s4.544-36.127 25.702-50.975v0zM832 884.972l-30.771 40.978c-7.149 9.115-16.262 16.783-26.771 22.528-10.502 5.744-22.189 9.442-34.317 10.864s-24.448 0.537-36.186-2.599c-11.744-3.136-22.656-8.457-32.064-15.631l-479.891-365.111h218.091l421.909 308.972zM1006.022 631.378l-116.499 136.622-249.523-169.048h321.683c11.597-0.182 23.034-2.306 33.632-6.248s20.154-9.622 28.096-16.705c2.624 19.629-3.578 39.373-17.389 55.378v0z" />
<glyph unicode="&#xe91b;" glyph-name="document" d="M880.211 770.987h-846.078c-4.928 0.12-9.822-0.842-14.337-2.819s-8.542-4.92-11.797-8.622c-3.255-3.702-5.658-8.073-7.040-12.804s-1.71-9.709-0.959-14.58l109.227-768.001c1.225-8.179 5.343-15.648 11.606-21.050s14.256-8.378 22.527-8.39h846.509c4.89-0.058 9.734 0.954 14.202 2.957 4.461 2.003 8.435 4.954 11.642 8.653 3.206 3.693 5.574 8.038 6.931 12.742 1.357 4.698 1.677 9.638 0.928 14.477l-109.222 767.998c-1.229 8.18-5.344 15.649-11.61 21.051-6.259 5.402-14.253 8.378-22.528 8.389v0zM108.8 809.387h246.614l578.135 3.413c7.91-0.186 15.475-3.298 21.229-8.735s9.286-12.814 9.914-20.705l33.28-252.587 26.029 322.987c0.467 4.53 0.013 9.108-1.338 13.459-1.344 4.349-3.565 8.381-6.515 11.85s-6.573 6.304-10.65 8.334c-4.077 2.030-8.525 3.213-13.069 3.477h-623.362l-22.613 49.92c-2.275 5.623-6.162 10.447-11.174 13.863s-10.922 5.274-16.986 5.337h-208.64c-8.602-0.441-16.698-4.199-22.586-10.485s-9.11-14.61-8.988-23.222v-82.346c-0.467-8.646 2.498-17.128 8.251-23.6s13.828-10.411 22.469-10.96v0z" />
<glyph unicode="&#xe91d;" glyph-name="download" d="M937.811 448h-72.96c-8.486 0-16.627-3.372-22.624-9.373-6.003-6.001-9.376-14.14-9.376-22.627s3.373-16.626 9.376-22.627c5.997-6.001 14.138-9.373 22.624-9.373h72.96c5.658 0 11.085-2.248 15.085-6.248s6.253-9.427 6.253-15.085v-341.336c0-5.658-2.253-11.085-6.253-15.085s-9.427-6.246-15.085-6.246h-853.331c-5.658 0-11.084 2.246-15.085 6.246s-6.248 9.427-6.248 15.085v341.336c0 5.658 2.247 11.084 6.248 15.085s9.427 6.248 15.085 6.248h74.666c8.487 0 16.627 3.372 22.628 9.373s9.372 14.14 9.372 22.627c0 8.487-3.371 16.626-9.372 22.627s-14.141 9.373-22.628 9.373h-74.666c-22.632 0-44.337-8.991-60.34-24.993s-24.994-37.708-24.994-60.34v-341.336c0-22.63 8.99-44.333 24.994-60.339 16.003-16 37.708-24.992 60.34-24.992h853.331c22.637 0 44.339 8.992 60.339 24.992 16.006 16.006 24.998 37.709 24.998 60.339v341.336c0 22.632-8.992 44.337-24.998 60.34-16 16.003-37.702 24.993-60.339 24.993zM493.653 103.251c2.316-2.49 5.123-4.48 8.243-5.843 3.12-1.357 6.487-2.061 9.891-2.061s6.771 0.704 9.891 2.061c3.121 1.363 5.926 3.354 8.243 5.843l218.88 227.842c3.45 3.569 5.766 8.078 6.662 12.96 0.89 4.882 0.326 9.919-1.638 14.479-1.958 4.56-5.222 8.438-9.382 11.148s-9.024 4.129-13.99 4.081h-109.651v552.107c0 9.053-3.596 17.735-9.997 24.136s-15.083 9.997-24.136 9.997h-149.76c-9.053 0-17.735-3.596-24.136-9.997s-9.997-15.083-9.997-24.136v-552.107h-109.653c-4.927-0.035-9.734-1.516-13.828-4.258s-7.292-6.625-9.2-11.167c-1.908-4.543-2.441-9.545-1.533-14.387s3.217-9.312 6.641-12.855l218.453-227.842z" />
<glyph unicode="&#xe91e;" glyph-name="edit" d="M856.48 628.794l-163.52 163.521-553.619-553.62 163.521-163.52 553.618 553.619zM188.587 124.589l81.92-81.498-65.707-64.422-167.253-42.669c-5.062-0.538-10.181 0.064-14.981 1.76s-9.159 4.448-12.759 8.045c-3.6 3.603-6.349 7.962-8.046 12.762s-2.298 9.92-1.761 14.982l42.667 167.251 65.706 65.709 80.214-81.92zM879.757 954.949l139.386-139.385c3.2-3.201 4.998-7.542 4.998-12.068s-1.798-8.867-4.998-12.068l-130.336-130.334-163.52 163.521 130.336 130.334c3.2 3.201 7.539 4.999 12.064 4.999 4.531 0 8.87-1.798 12.070-4.999z" />
<glyph unicode="&#xe91f;" glyph-name="email" d="M2.793 768c-1.745-5.807-2.607-11.844-2.558-17.908v-596.94c-0.312-2.406-0.312-4.845 0-7.245l348.356 353.896-345.798 268.196zM1023.558 764.205l-348.358-267.77 348.358-351.34c0.211 1.843 0.211 3.699 0 5.542v596.939c0.589 5.527 0.589 11.101 0 16.629zM459.45 464.029c14.984-11.686 33.443-18.033 52.445-18.033s37.461 6.347 52.445 18.033l45.197 35.39 392.702 304.013c-8.032 9.019-17.888 16.229-28.909 21.154-11.027 4.925-22.976 7.452-35.053 7.414h-852.767c-12.004-0.022-23.868-2.578-34.816-7.501s-20.733-12.102-28.716-21.067l437.471-339.403zM633.843 467.825l-56.283-42.639c-18.809-14.522-41.901-22.398-65.663-22.398s-46.854 7.876-65.663 22.398l-56.283 42.639-5.969 4.264-365.838-368.825c7.812-10.554 17.956-19.162 29.642-25.152s24.596-9.203 37.727-9.382h852.767c13.203 0.115 26.202 3.296 37.965 9.286 11.763 5.997 21.978 14.637 29.83 25.248l-366.262 368.825-5.969-4.264z" />
<glyph unicode="&#xe920;" glyph-name="excel" d="M853.331 960h-489.811v-336.213c0-9.166-3.641-17.956-10.122-24.438s-15.272-10.122-24.438-10.122h-328.96v-482.558c0-45.267 17.981-88.678 49.987-120.685 32.006-32 75.416-49.984 120.68-49.984h682.664c45.267 0 88.678 17.984 120.685 49.984 32 32.006 49.984 75.418 49.984 120.685v682.664c0 45.264-17.984 88.673-49.984 120.68-32.006 32.006-75.418 49.987-120.685 49.987v0zM351.147 189.011l-63.147 98.989-57.6-98.989h-66.56l92.16 148.056-93.867 145.066h68.267l63.147-98.133 57.173 98.133h66.56l-92.16-147.2 93.867-145.922h-67.84zM619.093 189.011h-155.306v293.122h58.88v-247.464h96.426v-45.658zM849.069 231.68c-8.525-13.818-20.806-24.922-35.418-32-17.376-8.531-36.538-12.774-55.891-12.371-19.014-0.134-37.862 3.488-55.469 10.662-15.462 6.374-28.883 16.845-38.822 30.298-9.677 13.555-14.758 29.85-14.509 46.502h62.72c0.486-10.803 5.062-21.024 12.8-28.582 9.056-7.213 20.442-10.854 32-10.24 11.642-0.762 23.162 2.726 32.429 9.811 3.763 3.091 6.758 7.008 8.762 11.45 1.997 4.442 2.938 9.286 2.758 14.15 0.211 3.923-0.403 7.853-1.798 11.526s-3.546 7.014-6.31 9.805c-5.35 5.958-12.096 10.502-19.629 13.229-8.102 3.411-19.2 6.829-33.28 11.091-15.654 4.514-31.040 9.928-46.080 16.216-12.128 5.773-22.675 14.413-30.72 25.173-8.858 12.42-13.357 27.421-12.8 42.667-0.352 16.15 4.102 32.040 12.8 45.653 9.235 13.057 21.946 23.258 36.698 29.44 17.024 7.064 35.328 10.55 53.76 10.24 26.413 1.229 52.454-6.598 73.811-22.187 9.344-7.365 16.966-16.676 22.342-27.287 5.382-10.61 8.384-22.264 8.806-34.153h-64.858c-0.154 4.878-1.382 9.661-3.597 14.012-2.208 4.35-5.35 8.161-9.203 11.162-9.037 6.89-20.218 10.365-31.571 9.813-9.901 0.531-19.642-2.666-27.309-8.96-3.584-3.194-6.4-7.153-8.25-11.585-1.843-4.431-2.669-9.222-2.413-14.015-0.128-3.597 0.531-7.179 1.933-10.495s3.507-6.287 6.17-8.705c5.44-5.556 11.981-9.916 19.2-12.8 10.592-4.305 21.421-8.009 32.429-11.093 15.974-4.303 31.539-10.015 46.509-17.067 12.301-5.487 23.021-14.001 31.142-24.749 8.986-12.378 13.632-27.373 13.229-42.662 0.371-15.962-3.93-31.68-12.371-45.229v1.28zM316.16 924.16v-260.267c0-7.016-2.787-13.745-7.748-18.705s-11.69-7.748-18.705-7.748h-256c-6.644 0.175-13.093 2.285-18.555 6.074s-9.699 9.089-12.191 15.251c-2.492 6.162-3.131 12.918-1.838 19.437s4.462 12.52 9.117 17.265l245.76 252.587c4.617 5.467 10.835 9.344 17.775 11.085s14.252 1.256 20.902-1.385c6.65-2.641 12.302-7.305 16.157-13.333s5.718-13.115 5.326-20.26v0z" />
<glyph unicode="&#xe921;" glyph-name="feedback" d="M846.080 611.704h-209.068c16.831 49.14 31.071 99.129 42.668 149.76 7.738 42.397-0.851 86.151-24.038 122.477s-59.261 62.535-100.976 73.363c-9.394 2.816-19.309 3.436-28.981 1.811s-18.841-5.451-26.799-11.182c-7.958-5.732-14.493-13.215-19.1-21.874s-7.161-18.259-7.467-28.062v-30.72c0.582-53.472-9.876-106.488-30.72-155.734l-20.907-50.346c-6.481-15.080-17.172-27.971-30.794-37.128s-29.595-14.191-46.006-14.499v-617.814c11.827-5.197 24.628-7.814 37.547-7.68h492.801c20.038-1.133 39.834 4.832 55.91 16.851 16.070 12.019 27.398 29.318 31.981 48.858l61.869 364.372c3.578 25.101 1.6 50.683-5.792 74.937s-20.019 46.59-36.986 65.431c-16.966 18.84-37.869 33.726-61.216 43.606-23.354 9.88-48.589 14.513-73.926 13.572v0zM207.36 678.691h-122.027c-47.128 0-85.333-38.205-85.333-85.334v-572.16c0-47.13 38.205-85.331 85.333-85.331h122.027c47.128 0 85.333 38.202 85.333 85.331v572.16c0 47.128-38.205 85.334-85.333 85.334z" />
<glyph unicode="&#xe922;" glyph-name="filter" d="M944.211 960h-864.424c-70.827 0-106.24-104.96-56.32-166.4l381.44-469.333v-371.198c-0.020-2.925 0.71-5.805 2.123-8.365s3.459-4.717 5.943-6.259c2.484-1.542 5.322-2.419 8.243-2.547s5.827 0.493 8.437 1.811l179.627 87.891c2.952 1.331 5.453 3.488 7.197 6.214 1.743 2.733 2.652 5.907 2.616 9.146v284.587l381.438 469.333c49.92 60.16 14.509 165.12-56.32 165.12z" />
<glyph unicode="&#xe923;" glyph-name="financial" d="M345.172 638.72c8.732 8.55 20.233 13.696 32.427 14.507v-95.147c-12.223 3.269-23.487 9.413-32.854 17.92-3.966 3.938-7.045 8.678-9.032 13.902s-2.835 10.813-2.488 16.391c-0.38 5.939 0.486 11.892 2.544 17.477s5.26 10.676 9.403 14.95zM440.746 485.973c3.9-3.808 6.944-8.403 8.931-13.479s2.869-10.517 2.59-15.961c0.32-11.864-3.787-23.423-11.521-32.426-8.605-9.302-20.262-15.207-32.853-16.64v95.573c12.068-3.216 23.283-9.042 32.853-17.067zM977.069 951.040c-4.23 2.145-8.659 3.86-13.229 5.12-8.134 2.619-16.634 3.916-25.171 3.84h-710.829c-22.632 0-44.337-8.99-60.34-24.994s-24.994-37.708-24.994-60.34v-714.666h672.003c8.403 0.109 16.589-2.669 23.194-7.872 6.598-5.203 11.213-12.518 13.069-20.717 0.416-2.97 0.416-5.984 0-8.96v-67.84c-0.090-24.634 8.525-48.506 24.32-67.411 16.595-16.384 38.976-25.581 62.298-25.6 8.358 0.032 16.685 1.178 24.742 3.411 14.182 4.128 27.098 11.757 37.549 22.189 3.354 3.501 6.49 7.206 9.389 11.091 9.587 13.626 14.797 29.85 14.931 46.509v829.866c0.032 15.831-4.346 31.358-12.634 44.846s-20.166 24.404-34.298 31.528v0zM495.359 414.72c-8.275-14.332-20.010-26.362-34.134-34.987-16.227-9.718-34.479-15.558-53.333-17.067v-37.973h-30.293v37.973c-26.366 1.72-51.554 11.556-72.107 28.16-8.908 7.692-15.982 17.277-20.707 28.055s-6.979 22.476-6.6 34.239h57.6c0.55-11.264 4.742-22.045 11.947-30.72 7.882-8.346 18.461-13.636 29.867-14.934v103.68c-17.557 4.226-34.806 9.643-51.627 16.214-13.302 5.807-24.904 14.912-33.707 26.453-10.119 14.287-15.084 31.588-14.080 49.067-0.321 12.13 1.949 24.189 6.657 35.372s11.748 21.234 20.65 29.481c19.974 17.874 45.361 28.54 72.107 30.293v37.974h30.293v-37.974c24.609-1.311 48.122-10.596 66.987-26.453 8.708-7.746 15.737-17.194 20.653-27.761s7.617-22.029 7.933-33.679h-57.6c-0.939 9.69-4.979 18.817-11.52 26.027-6.952 7.897-16.202 13.418-26.453 15.786v-101.973c17.594-3.911 34.854-9.19 51.627-15.787 13.313-5.587 24.933-14.559 33.706-26.026 9.789-14.425 14.585-31.659 13.654-49.067 0.034-15.535-3.933-30.817-11.52-44.373v0zM881.491 366.933h-280.319c-5.318 0-10.419 2.113-14.18 5.873s-5.873 8.861-5.873 14.18c0 5.318 2.113 10.419 5.873 14.18s8.861 5.874 14.18 5.874h280.319c4.614-0.957 8.755-3.473 11.725-7.126 2.976-3.652 4.595-8.218 4.595-12.928s-1.619-9.275-4.595-12.927c-2.97-3.653-7.11-6.17-11.725-7.126v0zM881.491 494.933h-280.319c-5.318 0-10.419 2.113-14.18 5.873s-5.873 8.861-5.873 14.18c0 5.318 2.113 10.419 5.873 14.18s8.861 5.874 14.18 5.874h280.319c4.614-0.957 8.755-3.473 11.725-7.126 2.976-3.652 4.595-8.218 4.595-12.928s-1.619-9.275-4.595-12.927c-2.97-3.653-7.11-6.17-11.725-7.126v0zM881.491 622.933h-280.319c-5.318 0-10.419 2.113-14.18 5.873s-5.873 8.861-5.873 14.18c0 5.318 2.113 10.419 5.873 14.18s8.861 5.874 14.18 5.874h280.319c4.614-0.957 8.755-3.473 11.725-7.126 2.976-3.652 4.595-8.218 4.595-12.928s-1.619-9.275-4.595-12.928c-2.97-3.652-7.11-6.169-11.725-7.125zM817.92 32.429v61.862c0 9.056-3.597 17.734-9.997 24.141-6.4 6.4-15.085 9.997-24.134 9.997h-749.655c-9.053 0-17.735-3.597-24.136-9.997-6.401-6.406-9.997-15.085-9.997-24.141v-61.862c-0.056-12.678 2.399-25.248 7.225-36.973 4.826-11.718 11.926-22.374 20.892-31.341s19.618-16.064 31.342-20.89c11.725-4.826 24.289-7.283 36.967-7.226h831.144c-29.562-0.077-58.285 9.843-81.491 28.16-8.947 8.973-16.038 19.616-20.87 31.328-4.832 11.718-7.309 24.269-7.29 36.941z" />
<glyph unicode="&#xe924;" glyph-name="garbage" d="M225.279 7.251c2.637-19.43 12.122-37.28 26.748-50.342s33.434-20.48 53.039-20.909h411.305c19.802 0.218 38.874 7.526 53.747 20.595 14.874 13.075 24.563 31.046 27.322 50.656l128 642.563h-826.881l126.72-642.563zM681.389 391.254c1.754 8.226 6.554 15.483 13.44 20.311s15.347 6.87 23.68 5.715c8.307-1.27 15.795-5.716 20.89-12.403s7.398-15.089 6.413-23.437l-48.211-298.669c-1.318-7.494-5.261-14.272-11.13-19.117-5.862-4.851-13.261-7.45-20.87-7.334h-5.12c-4.122 0.525-8.096 1.862-11.699 3.93-3.61 2.061-6.765 4.819-9.304 8.109-2.537 3.29-4.399 7.046-5.481 11.059s-1.361 8.198-0.822 12.314l48.216 299.523zM477.866 386.56c0.333 8.451 3.955 16.437 10.092 22.255s14.305 9.009 22.762 8.892c8.415 0.115 16.536-3.089 22.605-8.918s9.598-13.816 9.821-22.228v-298.669c-0.223-8.41-3.752-16.397-9.821-22.227s-14.191-9.030-22.605-8.915c-8.456-0.122-16.624 3.072-22.762 8.89s-9.759 13.805-10.092 22.253v298.669zM302.933 417.28c8.279 1.143 16.683-0.912 23.5-5.748s11.535-12.087 13.193-20.278l48.213-298.665c0.598-4.128 0.361-8.333-0.697-12.371-1.058-4.032-2.915-7.814-5.462-11.117s-5.731-6.061-9.363-8.109c-3.633-2.048-7.64-3.347-11.784-3.821h-4.694c-7.681-0.218-15.183 2.336-21.137 7.194s-9.961 11.693-11.29 19.264l-47.787 298.665c-0.662 4.184-0.475 8.458 0.55 12.568s2.865 7.972 5.413 11.356c2.548 3.384 5.75 6.22 9.417 8.341s7.723 3.481 11.927 4.001v-1.28zM925.44 821.334h-251.309v85.333c-0.442 14.524-6.618 28.282-17.165 38.273-10.554 9.991-24.626 15.405-39.153 15.060h-213.333c-7.172 0.17-14.308-1.075-21-3.663s-12.806-6.47-17.997-11.423c-5.19-4.953-9.354-10.88-12.253-17.442s-4.477-13.632-4.643-20.805v-85.333h-251.733c-14.073 0.229-27.666-5.114-37.816-14.865s-16.035-23.118-16.37-37.189v-82.346h938.664v82.346c-0.218 7.098-1.843 14.083-4.774 20.55-2.938 6.467-7.123 12.289-12.32 17.128s-11.302 8.602-17.958 11.069c-6.662 2.468-13.741 3.591-20.838 3.306v0zM608.854 821.334h-195.413v76.8h196.693l-1.28-76.8z" />
<glyph unicode="&#xe925;" glyph-name="headset" d="M885.331 522.163v85.322c-2.899 96.185-43.827 187.294-113.811 253.35s-163.313 101.668-259.519 99.027c-96.062 2.645-189.264-32.851-259.224-98.724s-110.987-156.765-114.109-252.8v-85.322c-39.158-7.473-74.465-28.416-99.793-59.196s-39.082-69.455-38.873-109.313v-10.239c0.090-39.641 13.979-78.009 39.282-108.524s60.442-51.27 99.384-58.707v0c10.536-2.086 21.259-3.091 32-2.982h32v434.284c2.453 79.627 36.402 155.028 94.396 209.654s135.295 84.016 214.937 81.718c79.642 2.298 156.946-27.092 214.936-81.718 57.997-54.627 91.942-130.028 94.394-209.654v-320.812c0-203.488-60.16-290.515-201.384-291.373-29.978 0.307-59.496 7.418-86.326 20.794s-50.27 32.672-68.554 56.422c7.462 10.304 11.492 22.694 11.52 35.411 0.854 13.818-2.461 27.578-9.518 39.488s-17.53 21.427-30.061 27.322c-12.531 5.888-26.542 7.885-40.219 5.715-13.676-2.163-26.387-8.384-36.485-17.862-10.098-9.472-17.117-21.76-20.148-35.264-3.032-13.51-1.935-27.622 3.148-40.499s13.916-23.936 25.357-31.731c11.441-7.802 24.96-11.987 38.807-12.013v0c24.418-33.651 56.509-60.992 93.61-79.763s78.143-28.429 119.723-28.166v0c186.879 0 241.919 132.672 258.131 240.179 40.262 6.106 77.011 26.406 103.61 57.229 26.605 30.822 41.312 70.138 41.459 110.854v10.239c0.006 39.713-13.837 78.185-39.149 108.788s-60.506 51.422-99.52 58.868z" />
<glyph unicode="&#xe926;" glyph-name="help" d="M853.331 960h-682.664c-45.264 0-88.673-17.981-120.68-49.987s-49.987-75.416-49.987-120.68v-682.664c0-45.267 17.981-88.678 49.987-120.685 32.006-32 75.416-49.984 120.68-49.984h682.664c45.267 0 88.678 17.984 120.685 49.984 32 32.006 49.984 75.418 49.984 120.685v682.664c0 45.264-17.984 88.673-49.984 120.68-32.006 32.006-75.418 49.987-120.685 49.987v0zM500.907 145.069h-2.134c-11.316 0-22.168 4.493-30.17 12.493-8.002 8.006-12.497 18.854-12.497 30.17s4.495 22.17 12.497 30.17c8.001 8.006 18.854 12.499 30.17 12.499h2.134c11.316 0 22.168-4.493 30.17-12.499 8.002-8 12.497-18.854 12.497-30.17s-4.495-22.163-12.497-30.17c-8.001-8-18.854-12.493-30.17-12.493zM599.467 426.667c-22.172-9.836-42.403-23.564-59.734-40.534-8.342-13.542-12.223-29.361-11.093-45.226v-48.216h-62.293c0 45.229 0 73.816 2.133 85.336 1.125 11.563 4.304 22.833 9.387 33.28 4.127 9.833 10.060 18.806 17.493 26.453 14.582 11.197 30.148 21.050 46.507 29.44 19.27 10.056 37.805 21.463 55.466 34.133 10.852 9.708 19.694 21.45 26.027 34.56 7.425 14.98 11.225 31.495 11.093 48.214 0.421 14.9-2.728 29.684-9.186 43.119s-16.035 25.13-27.934 34.108c-24.157 19.341-54.399 29.472-85.333 28.587-73.813 0-119.040-42.667-135.253-128l-63.574 14.080c21.903 116.622 89.743 174.933 203.52 174.933 51.023 2.528 101.131-14.225 140.376-46.933 17.408-15.11 31.264-33.889 40.557-54.987s13.805-43.993 13.203-67.040c0-65.137-37.12-116.906-111.362-155.306v0z" />
<glyph unicode="&#xe927;" glyph-name="help-bubble" d="M756.051 961.279h-488.105c-35.26 0-70.172-6.956-102.737-20.469s-62.14-33.318-87.033-58.279c-24.892-24.961-44.611-54.588-58.026-87.182s-20.263-67.514-20.151-102.758v-235.422c0.056-35.117 7.031-69.878 20.527-102.3s33.248-61.871 58.13-86.664c24.881-24.787 54.404-44.442 86.882-57.824 32.479-13.389 67.277-20.25 102.408-20.192h240.213l93.013-232.013c2.385-6.029 6.401-11.283 11.599-15.162 5.198-3.885 11.374-6.246 17.837-6.822 6.463-0.57 12.957 0.659 18.762 3.565 5.805 2.899 10.682 7.36 14.099 12.877l110.080 177.843c20.941 35.942 52.346 64.659 90.022 82.317 47.648 20.685 88.211 54.835 116.71 98.246 28.506 43.414 43.699 94.204 43.718 146.129v235.422c0.109 35.244-6.739 70.164-20.154 102.758s-33.133 62.221-58.022 87.182c-24.896 24.961-54.47 44.766-87.034 58.279s-67.482 20.469-102.739 20.469v0zM554.666 327.090c-2.829-0.42-5.704-0.42-8.534 0-8.365 0.044-16.477 2.879-23.048 8.056s-11.222 12.399-13.219 20.519c-1.14 4.762-1.325 9.702-0.546 14.535s2.508 9.465 5.085 13.628c2.578 4.163 5.955 7.774 9.935 10.627s8.486 4.889 13.258 5.992v0c2.829 0.42 5.704 0.42 8.533 0 8.385 0.032 16.534-2.775 23.12-7.964s11.219-12.454 13.147-20.611c2.184-9.609 0.5-19.691-4.689-28.070s-13.466-14.381-23.044-16.712v0zM581.119 582.984c-16.991-12.538-31.465-28.164-42.667-46.061-4.36-13.154-4.36-27.363 0-40.516l9.814-40.090-52.48-12.794c-8.96 38.384-14.080 62.267-15.787 71.65-1.687 10.023-1.687 20.257 0 30.281 1.736 9.041 5.058 17.704 9.813 25.589 9.749 12.471 20.758 23.905 32.854 34.119 14.253 13.095 27.384 27.361 39.253 42.649 7.14 10.3 12.212 21.887 14.933 34.119 3.403 14.013 3.403 28.636 0 42.649-2.545 12.569-8.053 24.349-16.068 34.364s-18.303 17.971-30.012 23.213c-24.006 11.594-51.266 14.605-77.226 8.529-61.867-14.927-91.307-60.135-87.894-135.197h-57.173c-5.12 102.642 40.107 165.478 135.68 188.508 42.653 12.231 88.348 7.968 128-11.942 17.736-9.249 33.207-22.305 45.304-38.23s20.522-34.33 24.668-53.891c6.125-29.239 3.437-59.637-7.727-87.347s-30.302-51.487-54.991-68.321l1.707-1.279z" />
<glyph unicode="&#xe928;" glyph-name="home" d="M1013.331 454.827l-474.451 493.653c-3.467 3.64-7.637 6.538-12.258 8.519s-9.595 3.001-14.622 3.001c-5.027 0-10.002-1.021-14.623-3.001s-8.79-4.878-12.257-8.519l-474.454-493.653c-5.094-5.297-8.521-11.971-9.858-19.197s-0.524-14.685 2.338-21.453c2.862-6.768 7.646-12.548 13.761-16.623s13.291-6.266 20.639-6.301h75.094v-420.693c-0.23-4.314 0.394-8.634 1.836-12.71 1.441-4.070 3.673-7.821 6.566-11.034 2.893-3.206 6.392-5.818 10.294-7.674s8.134-2.925 12.45-3.142h229.12c9.053 0 17.735 3.597 24.136 9.997s9.997 15.085 9.997 24.134v213.338c0 4.48 0.883 8.922 2.598 13.062s4.229 7.904 7.399 11.072c3.169 3.168 6.932 5.683 11.073 7.398s8.58 2.598 13.062 2.598h141.653c9.053 0 17.735-3.597 24.136-9.997s9.997-15.085 9.997-24.134v-213.338c0-9.050 3.596-17.734 9.997-24.134s15.084-9.997 24.134-9.997h229.12c4.32 0.218 8.55 1.286 12.454 3.142 3.898 1.856 7.398 4.467 10.291 7.674 2.893 3.213 5.126 6.963 6.566 11.034 1.44 4.077 2.067 8.397 1.837 12.71v420.693h75.091c7.347 0.036 14.528 2.227 20.64 6.301 6.118 4.075 10.899 9.855 13.76 16.623 2.867 6.768 3.68 14.227 2.342 21.453s-4.768 13.9-9.862 19.197v0z" />
<glyph unicode="&#xe929;" glyph-name="info" d="M853.331 960h-682.664c-45.264 0-88.673-17.981-120.68-49.987s-49.987-75.416-49.987-120.68v-682.664c0-45.267 17.981-88.678 49.987-120.685 32.006-32 75.416-49.984 120.68-49.984h682.664c45.267 0 88.678 17.984 120.685 49.984 32 32.006 49.984 75.418 49.984 120.685v682.664c0 45.264-17.984 88.673-49.984 120.68-32.006 32.006-75.418 49.987-120.685 49.987v0zM554.667 161.709c0-4.531-1.798-8.87-4.999-12.070s-7.542-4.998-12.068-4.998h-55.467c-4.526 0-8.867 1.798-12.068 4.998s-4.998 7.539-4.998 12.070v399.784c0 4.527 1.798 8.868 4.998 12.068s7.542 4.999 12.068 4.999h55.467c4.526 0 8.867-1.798 12.068-4.999s4.999-7.541 4.999-12.068v-399.784zM554.667 652.8c-5.192-5.368-11.43-9.615-18.329-12.477s-14.31-4.278-21.778-4.163c-7.596-0.115-15.138 1.296-22.178 4.15s-13.436 7.092-18.808 12.465c-5.372 5.372-9.61 11.767-12.465 18.808s-4.265 14.582-4.15 22.178c-0.231 14.906 5.413 29.304 15.713 40.083s24.426 17.071 39.327 17.517c7.468 0.116 14.88-1.3 21.778-4.163s13.137-7.109 18.329-12.477c10.985-10.647 17.395-25.151 17.873-40.442s-5.014-30.166-15.313-41.478v0z" />
<glyph unicode="&#xe92a;" glyph-name="invoice" d="M430.507 551.253c-0.59-7.828 0.515-15.692 3.239-23.055s7.004-14.052 12.547-19.612c12.991-11.405 28.484-19.59 45.227-23.893v131.84c-16.023-1.871-31.001-8.911-42.667-20.053-5.945-5.916-10.634-12.97-13.787-20.742s-4.703-16.1-4.559-24.485v0zM533.333 410.88v-133.549c17.184 2.157 33.053 10.317 44.8 23.040 10.175 11.891 15.773 27.020 15.787 42.669 0.419 7.492-0.772 14.987-3.496 21.979s-6.914 13.32-12.291 18.554c-12.785 12.232-28.069 21.548-44.8 27.307v0zM853.331 960h-682.664c-45.264 0-88.673-17.981-120.68-49.987s-49.987-75.416-49.987-120.68v-682.664c0-45.267 17.981-88.678 49.987-120.685 32.006-32 75.416-49.984 120.68-49.984h682.664c45.267 0 88.678 17.984 120.685 49.984 32 32.006 49.984 75.418 49.984 120.685v682.664c0 45.264-17.984 88.673-49.984 120.68-32.006 32.006-75.418 49.987-120.685 49.987v0zM652.371 290.131c-11.008-19.757-27.053-36.243-46.504-47.782-21.883-13.664-46.795-21.722-72.534-23.469v-52.48h-42.666v52.48c-35.999 2.118-70.447 15.392-98.56 37.971-12.136 10.579-21.764 23.718-28.186 38.483-6.42 14.758-9.473 30.765-8.934 46.852h78.506c0.451-15.642 6.163-30.673 16.214-42.667 11.048-12.205 26.274-19.821 42.666-21.331v143.784c-24.12 5.652-47.793 13.068-70.826 22.187-18.144 7.858-33.998 20.189-46.080 35.84-13.629 19.575-20.244 43.18-18.774 66.987-0.468 16.643 2.598 33.196 8.996 48.568s15.984 29.21 28.124 40.605c27.052 25.006 61.814 40.054 98.56 42.667v50.773h42.667v-52.48c33.535-1.646 65.606-14.235 91.307-35.84 11.874-10.911 21.461-24.074 28.2-38.724s10.496-30.493 11.053-46.609h-80.64c-1.295 13.246-6.661 25.766-15.36 35.84-9.48 10.909-22.179 18.529-36.267 21.76v-139.52c24.036-5.264 47.586-12.543 70.4-21.76 18.125-7.689 33.986-19.878 46.078-35.414 13.331-19.698 19.782-43.246 18.349-66.986-0.013-20.941-5.453-41.521-15.789-59.736v0z" />
<glyph unicode="&#xe92c;" glyph-name="link" d="M704 477.867l-10.669 12.8-95.998 88.746c-6.236 6.201-14.673 9.682-23.467 9.682s-17.231-3.481-23.467-9.682l-42.666-42.666c-6.228-6.308-9.72-14.816-9.72-23.68s3.492-17.372 9.72-23.68l94.72-89.6c2.222-2.076 3.994-4.586 5.205-7.375s1.836-5.797 1.836-8.838c0-3.041-0.625-6.049-1.836-8.838s-2.983-5.3-5.205-7.375l-289.707-296.96c-4.477-4.454-10.537-6.957-16.853-6.957s-12.376 2.502-16.854 6.957l-143.786 137.389c-2.249 1.971-4.057 4.397-5.307 7.117s-1.913 5.677-1.947 8.666c-0.003 3.021 0.6 6.016 1.772 8.8s2.892 5.306 5.055 7.418l157.013 159.144c-4.461 5.338-8.458 11.048-11.946 17.067l-9.387 17.92c-2.105 4.151-3.957 8.426-5.547 12.8-11.045 26.264-14.16 55.187-8.96 83.2 0.285 1.336 0.134 2.728-0.429 3.973s-1.511 2.276-2.703 2.943c-1.192 0.668-2.566 0.936-3.922 0.766s-2.621-0.769-3.612-1.709l-202.667-206.506c-13.945-14.129-24.942-30.891-32.35-49.31s-11.080-38.131-10.802-57.984c0.278-19.846 4.5-39.45 12.421-57.651 7.921-18.208 19.383-34.656 33.718-48.39l144.213-137.382c28.461-27.322 66.364-42.605 105.813-42.669 20.241-0.134 40.302 3.795 58.992 11.565s35.629 19.219 49.808 33.664l295.681 298.662 6.829 7.68c5.99 7.757 11.277 16.045 15.782 24.749 0.307 1.261 0.307 2.579 0 3.84 9.882 20.172 14.854 42.394 14.509 64.853 0.070 34.598-12.006 68.122-34.131 94.72l0.851 2.134zM977.92 779.947l-143.789 137.386c-28.461 27.318-66.362 42.601-105.811 42.667-20.243 0.136-40.301-3.797-58.995-11.567-18.688-7.769-35.626-19.216-49.805-33.66l-295.68-298.666-6.827-7.68c-5.996-7.757-11.279-16.040-15.787-24.747-0.307-1.261-0.307-2.579 0-3.84-9.879-20.172-14.849-42.394-14.506-64.853-0.073-34.598 12.008-68.122 34.133-94.72v0l10.667-11.947 95.146-94.291c6.236-6.202 14.673-9.683 23.467-9.683s17.231 3.482 23.467 9.683l42.666 42.664c3.135 3.096 5.624 6.783 7.323 10.848s2.573 8.427 2.573 12.832c0 4.406-0.875 8.767-2.573 12.833s-4.188 7.752-7.323 10.847l-96.426 93.867c-2.222 2.076-3.994 4.586-5.205 7.375s-1.837 5.797-1.837 8.838c0 3.041 0.625 6.049 1.837 8.838s2.983 5.299 5.205 7.375l291.84 295.253c4.48 4.455 10.534 6.957 16.851 6.957s12.378-2.502 16.858-6.957l143.782-137.813c2.253-1.976 4.058-4.402 5.306-7.122 1.254-2.719 1.914-5.672 1.952-8.665 0-3.021-0.602-6.013-1.773-8.797s-2.893-5.306-5.056-7.416l-157.011-159.147c4.461-5.338 8.454-11.048 11.942-17.067l9.389-17.92c2.106-4.151 3.955-8.426 5.549-12.8 9.203-23.301 12.858-48.428 10.662-73.386-0.205-1.713 0.134-3.447 0.979-4.952s2.144-2.7 3.712-3.414c1.574-0.714 3.328-0.908 5.018-0.554s3.219 1.236 4.371 2.52l197.12 197.546c13.946 14.131 24.941 30.893 32.352 49.313s11.078 38.128 10.803 57.98c-0.282 19.851-4.499 39.449-12.422 57.654s-19.379 34.653-33.715 48.388h-0.429z" />
<glyph unicode="&#xe92d;" glyph-name="log" d="M989.869 713.813h-173.658c-12.864 0.224-25.126 5.492-34.144 14.669s-14.067 21.531-14.067 34.397v162.987c0 9.053-3.597 17.735-9.997 24.136s-15.085 9.997-24.134 9.997h-563.202c-45.264 0-88.673-17.981-120.68-49.987s-49.987-75.416-49.987-120.68v-682.664c0-45.267 17.981-88.678 49.987-120.685 32.006-32 75.416-49.984 120.68-49.984h682.664c45.267 0 88.678 17.984 120.685 49.984 32 32.006 49.984 75.418 49.984 120.685v573.011c0 9.053-3.597 17.734-9.997 24.136s-15.085 9.997-24.134 9.997v0zM184.32 763.733h426.667c7.921 0 15.517-3.146 21.119-8.748s8.746-13.198 8.746-21.119c0-7.921-3.144-15.518-8.746-21.119s-13.198-8.748-21.119-8.748h-426.667c-7.921 0-15.518 3.147-21.119 8.748s-8.748 13.198-8.748 21.119c0 7.921 3.147 15.517 8.748 21.119s13.197 8.748 21.119 8.748v0zM810.669 93.869h-626.349c-7.921 0-15.518 3.142-21.119 8.742-5.601 5.606-8.748 13.203-8.748 21.12 0 7.923 3.147 15.52 8.748 21.12s13.197 8.749 21.119 8.749h626.349c3.923 0 7.802-0.774 11.43-2.272 3.622-1.504 6.912-3.699 9.683-6.477 2.778-2.771 4.979-6.067 6.477-9.69 1.504-3.622 2.272-7.507 2.272-11.43s-0.768-7.802-2.272-11.43c-1.498-3.622-3.699-6.912-6.477-9.69-2.771-2.771-6.061-4.973-9.683-6.47-3.629-1.504-7.507-2.272-11.43-2.272v0zM810.669 246.611h-626.349c-7.921 0-15.518 3.149-21.119 8.749s-8.748 13.197-8.748 21.12c0 7.923 3.147 15.52 8.748 21.12s13.197 8.749 21.119 8.749h626.349c7.917 0 15.514-3.149 21.114-8.749 5.606-5.6 8.749-13.197 8.749-21.12s-3.142-15.52-8.749-21.12c-5.6-5.6-13.197-8.749-21.114-8.749v0zM810.669 398.933h-626.349c-7.921 0-15.518 3.147-21.119 8.748s-8.748 13.197-8.748 21.119c0 7.921 3.147 15.518 8.748 21.119s13.197 8.748 21.119 8.748h626.349c7.917 0 15.514-3.147 21.114-8.748 5.606-5.601 8.749-13.197 8.749-21.119s-3.142-15.518-8.749-21.119c-5.6-5.601-13.197-8.748-21.114-8.748zM810.669 551.68h-626.349c-7.921 0-15.518 3.147-21.119 8.748s-8.748 13.198-8.748 21.119c0 7.921 3.147 15.517 8.748 21.119s13.197 8.748 21.119 8.748h626.349c7.917 0 15.514-3.146 21.114-8.748 5.606-5.601 8.749-13.198 8.749-21.119s-3.142-15.518-8.749-21.119c-5.6-5.601-13.197-8.748-21.114-8.748v0zM825.171 744.107h170.669c5.626 0.026 11.117 1.737 15.763 4.913s8.237 7.672 10.304 12.907c2.067 5.235 2.515 10.97 1.293 16.463s-4.064 10.494-8.16 14.357l-170.669 159.573c-3.987 3.875-9.030 6.484-14.496 7.497s-11.11 0.384-16.224-1.806c-5.107-2.19-9.459-5.844-12.493-10.502-3.040-4.657-4.627-10.11-4.57-15.669v-159.573c0-3.734 0.742-7.431 2.182-10.876s3.552-6.568 6.214-9.188c2.662-2.62 5.811-4.685 9.28-6.076s7.174-2.076 10.906-2.020z" />
<glyph unicode="&#xe92e;" glyph-name="logout" d="M1017.171 468.053l-109.222 138.667c-2.579 3.313-5.798 6.077-9.459 8.132s-7.693 3.359-11.866 3.836c-4.173 0.477-8.397 0.116-12.429-1.059s-7.789-3.144-11.046-5.789c-6.65-5.432-10.912-13.251-11.866-21.783-0.96-8.532 1.459-17.101 6.746-23.871l67.84-85.333h-166.4v369.493c0 9.092-3.584 17.819-9.971 24.288-6.394 6.469-15.072 10.16-24.166 10.272h-127.997v40.534c-0.007 4.967-1.084 9.875-3.159 14.389s-5.098 8.527-8.863 11.766c-3.766 3.239-8.186 5.629-12.959 7.006s-9.786 1.709-14.699 0.973l-529.067-88.747c-8.024-1.407-15.292-5.604-20.522-11.85s-8.087-14.138-8.065-22.284v-777.384c-0.022-8.147 2.834-16.038 8.065-22.285s12.499-10.445 20.522-11.853l528.64-89.171c4.913-0.736 9.926-0.403 14.699 0.973s9.193 3.763 12.959 7.008c3.766 3.238 6.789 7.251 8.864 11.763s3.152 9.421 3.158 14.387v42.669h128.002c9.088 0.115 17.773 3.802 24.16 10.272s9.971 15.194 9.971 24.288v368.213h166.4l-67.84-85.333c-5.28-6.77-7.706-15.341-6.746-23.872 0.954-8.531 5.216-16.352 11.866-21.779 6.63-5.235 15.066-7.635 23.456-6.675s16.064 5.197 21.344 11.795l109.229 138.664c4.32 5.692 6.694 12.623 6.771 19.77s-2.15 14.127-6.349 19.91zM695.891 75.949h-98.557v744.104h98.986l-0.429-744.104z" />
<glyph unicode="&#xe931;" glyph-name="other" d="M498.773 730.453c63.388 0 114.774 51.386 114.774 114.774s-51.386 114.773-114.774 114.773c-63.388 0-114.773-51.386-114.773-114.773s51.386-114.774 114.773-114.774zM498.773-64c63.388 0 114.774 51.386 114.774 114.771 0 63.392-51.386 114.778-114.774 114.778s-114.773-51.386-114.773-114.778c0-63.386 51.386-114.771 114.773-114.771zM498.773 333.227c63.388 0 114.774 51.386 114.774 114.773s-51.386 114.773-114.774 114.773c-63.388 0-114.773-51.386-114.773-114.773s51.386-114.773 114.773-114.773z" />
<glyph unicode="&#xe936;" glyph-name="pdf" d="M293.12 391.253c0.32-5.869-0.575-11.741-2.632-17.247s-5.227-10.529-9.315-14.753c-10.333-8.31-23.487-12.287-36.693-11.093h-47.36v85.333h47.36c32.427 0.853 48.64-13.227 48.64-42.24zM571.307 405.333c-9.63 9.148-21.039 16.216-33.517 20.767s-25.759 6.486-39.017 5.687h-42.666v-197.118h42.666c13.191-0.838 26.415 0.998 38.879 5.395s23.911 11.27 33.654 20.205c8.92 9.664 15.787 21.037 20.187 33.427 4.4 12.397 6.241 25.549 5.413 38.677 0.798 13.252-1.055 26.531-5.45 39.059s-11.246 24.052-20.15 33.901zM571.307 405.333c-9.63 9.148-21.039 16.216-33.517 20.767s-25.759 6.486-39.017 5.687h-42.666v-197.118h42.666c13.191-0.838 26.415 0.998 38.879 5.395s23.911 11.27 33.654 20.205c8.92 9.664 15.787 21.037 20.187 33.427 4.4 12.397 6.241 25.549 5.413 38.677 0.798 13.252-1.055 26.531-5.45 39.059s-11.246 24.052-20.15 33.901zM853.331 960h-489.811v-336.213c0-9.166-3.641-17.956-10.122-24.438s-15.272-10.122-24.438-10.122h-328.96v-482.558c0-45.267 17.981-88.678 49.987-120.685 32.006-32 75.416-49.984 120.68-49.984h682.664c45.267 0 88.678 17.984 120.685 49.984 32 32.006 49.984 75.418 49.984 120.685v682.664c0 45.264-17.984 88.673-49.984 120.68-32.006 32.006-75.418 49.987-120.685 49.987v0zM341.333 346.453c-7.986-14.664-20.372-26.453-35.413-33.704-18.844-9.165-39.648-13.562-60.587-12.8h-48.213v-114.349h-59.733v298.667h109.653c20.27 0.439 40.384-3.642 58.88-11.947 15.037-7.176 27.644-18.596 36.267-32.853 8.259-14.407 12.531-30.755 12.373-47.36-0.239-16.128-4.808-31.896-13.227-45.654zM640 255.571c-13.021-22.125-32.125-40.045-55.040-51.622-25.709-12.698-54.107-18.995-82.773-18.349h-105.387v298.667h104.107c28.645 0.431 56.993-5.853 82.773-18.347 23.564-11.919 43.137-30.454 56.32-53.333 13.178-24.031 19.802-51.107 19.2-78.507 0.64-27.405-5.984-54.49-19.2-78.509v0zM887.891 435.2h-125.44v-76.373h95.149v-47.358h-95.149v-125.869h-59.731v298.667h183.891l1.28-49.067zM500.053 435.2h-42.666v-200.531h42.666c13.191-0.838 26.415 0.998 38.879 5.395s23.911 11.27 33.654 20.205c8.92 9.664 15.787 21.037 20.187 33.427 4.4 12.397 6.241 25.549 5.413 38.677 0.74 13.183-1.14 26.381-5.535 38.831s-11.214 23.905-20.065 33.702c-9.634 9.617-21.187 17.096-33.905 21.948s-26.317 6.968-39.908 6.212l1.28 2.133zM316.16 924.16v-260.266c0-7.016-2.787-13.745-7.748-18.705s-11.69-7.748-18.705-7.748h-256c-6.644 0.175-13.093 2.286-18.555 6.074s-9.699 9.089-12.191 15.251c-2.492 6.162-3.131 12.917-1.838 19.437s4.462 12.52 9.117 17.265l245.76 252.587c4.617 5.467 10.835 9.344 17.775 11.085s14.252 1.256 20.902-1.385c6.65-2.641 12.302-7.305 16.157-13.333s5.718-13.115 5.326-20.26v0z" />
<glyph unicode="&#xe938;" glyph-name="phone" d="M1011.629 129.28l-241.92 170.669c-17.299 12.147-38.323 17.824-59.386 16.026-21.062-1.792-40.819-10.944-55.814-25.843v0c-6.912-6.611-15.84-10.707-25.356-11.635s-19.070 1.37-27.126 6.515c-49.332 34.202-95.846 72.295-139.093 113.922-41.603 43.27-79.697 89.78-113.92 139.093-5.151 8.056-7.446 17.609-6.518 27.126s5.027 18.446 11.638 25.354v0c14.47 14.886 23.352 34.315 25.14 54.997s-3.626 41.348-15.327 58.497l-170.667 243.626c-4.276 4.003-9.331 7.083-14.849 9.048s-11.382 2.772-17.226 2.372c-5.844-0.4-11.542-2-16.742-4.698s-9.786-6.439-13.476-10.988l-66.56-95.147-27.307-38.827c-21.944-31.352-34.725-68.196-36.911-106.403s6.311-76.267 24.537-109.917c70.136-134.636 159.062-258.615 264.106-368.215 109.598-105.043 233.577-193.971 368.216-264.102 33.651-18.227 71.706-26.726 109.914-24.538 38.208 2.182 75.053 14.963 106.406 36.909l38.822 27.309 95.149 66.56c4.55 3.686 8.288 8.275 10.989 13.472 2.701 5.203 4.294 10.899 4.698 16.742 0.397 5.843-0.41 11.712-2.374 17.229s-5.043 10.573-9.043 14.848v0z" />
<glyph unicode="&#xe939;" glyph-name="phone-recharge" d="M996.269 308.051c-17.594 23.687-40.947 42.486-67.84 54.616-33.99 13.281-68.934 23.978-104.538 32v205.227c20.813-5.071 39.571-16.386 53.76-32.427 12.992-14.77 20.915-33.309 22.618-52.906h116.902c-0.87 23.649-6.451 46.888-16.416 68.353s-24.109 40.728-41.606 56.66c-38.157 31.836-85.626 50.404-135.258 52.907v77.653h-62.291v-77.653c-53.984-3.025-105.318-24.401-145.493-60.587-18.155-16.738-32.531-37.156-42.169-59.891s-14.317-47.263-13.725-71.949c-1.873-35.404 8.194-70.412 28.587-99.413 17.603-23.537 41.17-41.948 68.269-53.334 34.022-13.415 68.954-24.394 104.531-32.856v-210.771c-23.245 2.886-44.71 13.926-60.589 31.149-14.285 17.587-22.643 39.238-23.891 61.862h-116.907c-1.030-24.179 3.469-48.275 13.155-70.458s24.303-41.856 42.739-57.542c41.25-33.811 92.232-53.542 145.493-56.32v-76.371h62.291v77.651c38.086 2.765 74.957 14.618 107.52 34.56 28.723 17.306 52.525 41.69 69.12 70.829 15.558 27.443 23.648 58.483 23.469 90.029 1.926 35.149-7.821 69.952-27.731 98.982v0zM761.6 409.174c-24.499 6.813-47.219 18.9-66.56 35.413-8.096 7.952-14.387 17.557-18.438 28.16s-5.766 21.954-5.030 33.28c-0.595 12.221 1.248 24.438 5.427 35.939 4.173 11.501 10.598 22.056 18.893 31.048 17.728 17.284 41.011 27.717 65.709 29.44v-193.28zM889.6 137.389c-17.344-18.733-40.787-30.682-66.131-33.709v194.56c24.397-6.861 47.072-18.778 66.56-34.989 7.93-7.802 14.118-17.197 18.163-27.565s5.85-21.478 5.299-32.595c0.576-24.045-7.789-47.456-23.462-65.702h-0.429zM523.947 98.56h-459.947v698.88h460.373v-221.44c10.746 33.85 30.163 64.298 56.32 88.32l7.68 6.4v203.947c0 22.632-8.99 44.336-24.993 60.34s-37.708 24.994-60.34 24.994h-417.707c-22.632 0-44.336-8.99-60.34-24.994s-24.994-37.708-24.994-60.34v-853.336c0-22.63 8.99-44.333 24.994-60.339 16.003-16 37.708-24.992 60.34-24.992h417.707c20.579-0.23 40.549 6.982 56.23 20.307 15.681 13.331 26.017 31.878 29.103 52.224l-6.4 5.12c-27.076 22.163-47.217 51.635-58.026 84.909v0zM196.693 893.44h194.987c5.318 0 10.419-2.113 14.18-5.873s5.873-8.861 5.873-14.18c0-5.318-2.113-10.419-5.873-14.18s-8.861-5.874-14.18-5.874h-194.987c-5.318 0-10.419 2.113-14.18 5.874s-5.873 8.861-5.873 14.18c0 5.318 2.113 10.419 5.873 14.18s8.861 5.873 14.18 5.873v0zM328.107 0c-3.005-6.394-7.773-11.802-13.745-15.578-5.971-3.782-12.896-5.779-19.962-5.754-7.072-0.038-14.014 1.894-20.045 5.587s-10.91 8.998-14.088 15.315c-2.908 5.216-4.38 11.104-4.267 17.069-0.567 5.357-0.001 10.765 1.66 15.891 1.661 5.12 4.38 9.83 7.981 13.837 3.601 4 8.003 7.2 12.921 9.389 4.918 2.195 10.242 3.328 15.626 3.328s10.707-1.133 15.625-3.328c4.918-2.189 9.32-5.389 12.921-9.389 3.601-4.006 6.32-8.717 7.981-13.837 1.661-5.126 2.227-10.534 1.66-15.891 0.039-5.824-1.431-11.552-4.266-16.64v0zM524.373 246.189h64v95.144c-15.245 11.494-28.878 24.984-40.533 40.106-10.735 13.853-18.702 29.642-23.467 46.507v-181.757z" />
<glyph unicode="&#xe93a;" glyph-name="photo" d="M511.999 194.112c100.148 0 181.332 81.184 181.332 181.331s-81.184 181.333-181.332 181.333c-100.148 0-181.333-81.186-181.333-181.333s81.185-181.331 181.333-181.331zM853.331 752.19h-39.68c-19.418 0.031-38.246 6.686-53.376 18.866-15.123 12.179-25.645 29.154-29.824 48.121l-2.131 9.813c-4.25 19.329-15.085 36.579-30.65 48.799-15.571 12.22-34.899 18.65-54.682 18.188h-263.682c-19.785 0.461-39.115-5.968-54.682-18.188s-26.403-29.47-30.652-48.799v-9.813c-4.191-19.038-14.774-36.068-29.989-48.255s-34.143-18.798-53.637-18.732h-39.68c-45.264 0-88.673-17.981-120.68-49.987s-49.987-75.416-49.987-120.68v-413.011c0-45.267 17.981-88.678 49.987-120.678 32.006-32.006 75.416-49.99 120.68-49.99h682.664c45.267 0 88.678 17.984 120.685 49.99 32 32 49.984 75.411 49.984 120.678v413.865c-0.224 45.116-18.304 88.307-50.285 120.128-31.987 31.822-75.264 49.686-120.384 49.685v0zM512 130.112c-48.522 0-95.955 14.387-136.3 41.344s-71.789 65.274-90.358 110.106c-18.568 44.826-23.427 94.154-13.961 141.744s32.832 91.304 67.142 125.615c34.311 34.31 78.025 57.676 125.615 67.142s96.918 4.608 141.747-13.961c44.829-18.568 83.146-50.013 110.102-90.358s41.344-87.777 41.344-136.3c-0.109-65.030-25.997-127.366-71.981-173.35-45.983-45.984-108.319-71.872-173.35-71.981v0zM860.589 542.27c-12.659 0-25.037 3.754-35.558 10.786-10.528 7.032-18.726 17.028-23.571 28.723s-6.112 24.563-3.642 36.977c2.47 12.415 8.563 23.819 17.517 32.769 8.947 8.95 20.352 15.046 32.768 17.516s25.28 1.202 36.973-3.642c11.699-4.844 21.696-13.047 28.723-23.572 7.034-10.525 10.79-22.899 10.79-35.556 0-16.974-6.746-33.252-18.746-45.255-12.006-12.002-28.282-18.745-45.254-18.745z" />
<glyph unicode="&#xe93d;" glyph-name="router" d="M944.211 564.813h-864.851c-21.048 0-41.233-8.362-56.116-23.244s-23.244-35.069-23.244-56.116v-206.931c0-21.050 8.361-41.235 23.244-56.122 14.883-14.88 35.068-23.238 56.116-23.238h864.851c21.088 0 41.318 8.346 56.269 23.213 14.95 14.874 23.405 35.059 23.52 56.147v206.931c-0.115 21.087-8.57 41.271-23.52 56.142s-35.181 23.218-56.269 23.218v0zM170.667 342.093c-7.933 0-15.687 2.352-22.282 6.759s-11.736 10.671-14.772 17.999c-3.036 7.328-3.83 15.393-2.282 23.172s5.368 14.926 10.977 20.535c5.609 5.609 12.755 9.429 20.535 10.977s15.844 0.753 23.172-2.282c7.329-3.036 13.592-8.177 17.999-14.772s6.759-14.349 6.759-22.282c0-10.637-4.225-20.838-11.747-28.36s-17.723-11.747-28.36-11.747v0zM303.787 342.093c-8.022-0.513-16.013 1.396-22.936 5.48s-12.46 10.153-15.892 17.421c-3.432 7.268-4.6 15.401-3.354 23.341s4.849 15.324 10.343 21.192c5.493 5.868 12.623 9.95 20.465 11.716s16.033 1.136 23.512-1.809c7.478-2.946 13.9-8.071 18.431-14.71s6.962-14.486 6.978-22.525c0.003-10.491-4.106-20.564-11.443-28.062s-17.322-11.821-27.81-12.044h1.707zM834.989 342.093c-7.936 0-15.686 2.352-22.285 6.759-6.592 4.407-11.738 10.671-14.771 17.999s-3.827 15.393-2.285 23.172c1.549 7.78 5.37 14.926 10.976 20.535 5.613 5.609 12.755 9.429 20.538 10.977s15.846 0.753 23.174-2.282c7.328-3.036 13.594-8.177 17.997-14.772 4.41-6.596 6.758-14.349 6.758-22.282 0.006-5.414-1.082-10.772-3.206-15.753-2.118-4.98-5.229-9.48-9.133-13.228-3.91-3.747-8.538-6.665-13.6-8.577s-10.464-2.779-15.872-2.548h1.709zM157.441 163.744c0.11-7.43 3.112-14.528 8.37-19.789 5.257-5.254 12.356-8.256 19.79-8.371h128c7.395 0.115 14.448 3.13 19.637 8.403 5.189 5.267 8.097 12.365 8.097 19.757v35.418h-183.894v-35.418zM682.669 163.744c0-7.469 2.963-14.63 8.25-19.91 5.28-5.28 12.442-8.25 19.91-8.25h128c7.43 0.115 14.534 3.117 19.789 8.371 5.261 5.261 8.262 12.358 8.371 19.789v35.418h-184.32v-35.418zM866.131 742.734c-0.755 7.323-4.352 14.059-10.016 18.764-5.658 4.705-12.941 7.006-20.275 6.409h-5.12c-7.296 0.592-14.522-1.722-20.122-6.436-5.594-4.716-9.094-11.45-9.747-18.737v-177.92h65.28v177.92z" />
<glyph unicode="&#xe93e;" glyph-name="script" d="M853.331 960h-682.664c-45.264 0-88.673-17.981-120.68-49.987s-49.987-75.416-49.987-120.68v-64.426h1024v64.426c0 45.264-17.984 88.673-49.984 120.68-32.006 32.006-75.418 49.987-120.685 49.987v0zM0 106.669c0-45.267 17.981-88.678 49.987-120.685s75.416-49.984 120.68-49.984h682.664c45.267 0 88.678 17.978 120.685 49.984 32 32.006 49.984 75.418 49.984 120.685v558.077h-1024v-558.077zM667.731 417.279c-5.99 6-9.357 14.133-9.357 22.613s3.366 16.614 9.357 22.614c2.944 3.019 6.458 5.418 10.342 7.057s8.058 2.482 12.275 2.482c4.211 0 8.384-0.844 12.269-2.482s7.398-4.038 10.342-7.057l94.291-93.014c6.022-6.072 9.395-14.276 9.395-22.826s-3.373-16.754-9.395-22.827l-94.72-93.439c-6.067-5.517-13.984-8.557-22.182-8.531-8.55-0.083-16.8 3.123-23.040 8.96-5.997 5.997-9.363 14.131-9.363 22.611s3.366 16.614 9.363 22.611l71.251 70.401-70.829 70.827zM431.36 213.76l101.12 287.999c3.249 7.403 9.179 13.301 16.599 16.511s15.779 3.491 23.398 0.789c7.619-2.702 13.933-8.188 17.674-15.354s4.63-15.484 2.489-23.279l-101.12-288.426c-2.078-6.259-6.090-11.699-11.457-15.533s-11.814-5.869-18.41-5.798c-3.541-0.448-7.125-0.448-10.666 0-4.207 1.414-8.079 3.68-11.374 6.656-3.295 2.97-5.946 6.592-7.786 10.63s-2.831 8.416-2.911 12.851c-0.080 4.442 0.751 8.851 2.444 12.954zM218.027 369.492l93.44 93.014c2.941 3.019 6.458 5.418 10.342 7.057s8.056 2.482 12.271 2.482c4.215 0 8.388-0.844 12.271-2.482s7.4-4.038 10.342-7.057c5.993-6 9.359-14.133 9.359-22.614s-3.366-16.613-9.359-22.613l-71.68-70.827 71.254-69.121c5.992-5.997 9.358-14.131 9.358-22.611s-3.366-16.614-9.358-22.611c-6.245-5.837-14.495-9.043-23.040-8.96-8.202-0.026-16.116 3.014-22.187 8.531l-93.867 92.159c-6.019 6.073-9.395 14.276-9.395 22.827s3.377 16.754 9.395 22.826h0.854z" />
<glyph unicode="&#xe93f;" glyph-name="search" d="M1009.069 21.331l-347.309 347.309c42.419 56.459 67.712 123.926 72.858 194.36s-10.074 140.86-43.84 202.884c-33.76 62.025-84.653 113.032-146.602 146.939s-132.34 49.285-202.785 44.3c-70.445-4.985-137.969-30.123-194.525-72.417s-99.755-99.959-124.45-166.121c-24.695-66.163-29.842-138.031-14.828-207.037s49.554-132.239 99.505-182.161c62.575-63.288 146.129-101.515 234.928-107.486 88.799-5.978 176.719 20.723 247.206 75.059l349.442-346.029c9.766-6.496 21.478-9.414 33.152-8.256s22.586 6.33 30.88 14.624c8.294 8.294 13.466 19.206 14.624 30.88s-1.76 23.386-8.256 33.152zM557.653 401.067c-50.893-48.666-118.596-75.826-189.013-75.826s-138.12 27.16-189.013 75.826c-37.311 37.37-62.708 84.963-72.979 136.762s-4.957 105.481 15.271 154.261c20.228 48.78 54.462 90.47 98.376 119.8s95.537 44.984 148.345 44.984c52.808 0 104.431-15.654 148.345-44.984s78.148-71.020 98.376-119.8c20.228-48.78 25.541-102.462 15.271-154.261-10.272-51.8-35.668-99.392-72.979-136.762z" />
<glyph unicode="&#xe940;" glyph-name="security" d="M818.771 563.628h-66.131v199.68c-0.339 52.432-21.466 102.588-58.739 139.463s-87.655 57.457-140.088 57.23h-128c-52.171-0.112-102.179-20.858-139.11-57.708s-57.784-86.814-58.010-138.985v-199.68h-66.133c-12.887 0.056-25.659-2.426-37.587-7.306s-22.777-12.061-31.93-21.134c-9.152-9.073-16.428-19.86-21.411-31.745s-7.578-24.634-7.633-37.521v-432.212c0.056-12.89 2.65-25.638 7.633-37.523s12.259-22.669 21.411-31.744c9.153-9.075 20.002-16.256 31.93-21.133 11.928-4.883 24.7-7.366 37.587-7.309h656.211c12.89-0.058 25.664 2.426 37.587 7.309 11.93 4.877 22.778 12.058 31.93 21.133s16.429 19.859 21.414 31.744c4.979 11.885 7.578 24.634 7.629 37.523v432.212c-0.051 12.887-2.65 25.636-7.629 37.521-4.986 11.885-12.262 22.671-21.414 31.745s-20 16.254-31.93 21.134c-11.923 4.88-24.698 7.363-37.587 7.306v0zM416.427 149.331l29.013 128c-7.921 5.331-14.429 12.499-18.963 20.896-4.534 8.403-6.958 17.779-7.064 27.32-0.072 10.118 2.483 20.083 7.416 28.918s12.076 16.237 20.728 21.484c8.652 5.247 18.518 8.157 28.633 8.447s20.131-2.050 29.070-6.792c8.938-4.742 16.493-11.724 21.924-20.261s8.554-18.339 9.061-28.445c0.507-10.108-1.617-20.169-6.166-29.212-4.549-9.037-11.366-16.736-19.786-22.355l29.014-128h-122.88zM690.349 564.481h-399.362v198.826c0.337 35.876 14.826 70.167 40.314 95.416s59.915 39.413 95.792 39.411h128c35.951 0.114 70.487-14 96.068-39.261s40.128-59.617 40.467-95.566l-1.28-198.826z" />
<glyph unicode="&#xe941;" glyph-name="services" d="M917.76 459.948c-34.778-27.613-75.654-46.511-119.226-55.121-43.565-8.61-88.557-6.68-131.226 5.628l-434.775-434.774c-25.651-25.427-60.308-39.699-96.427-39.699s-70.776 14.272-96.427 39.699c-25.43 25.651-39.698 60.307-39.698 96.429 0 36.115 14.268 70.778 39.698 96.422l434.347 434.35c-12.562 43.324-14.467 89.043-5.551 133.262s28.386 85.628 56.754 120.701c28.368 35.072 64.792 62.769 106.172 80.73s86.486 25.655 131.478 22.427c4.326-0.282 8.474-1.825 11.936-4.438 3.456-2.614 6.074-6.184 7.526-10.269s1.677-8.506 0.646-12.717c-1.037-4.211-3.277-8.027-6.458-10.976l-101.542-101.547c-12.8-12.8-14.938-19.627-14.080-26.88l24.742-153.173c0.621-4.65 2.752-8.967 6.067-12.284s7.635-5.448 12.282-6.063l153.171-24.32c3.443-0.52 6.963-0.253 10.291 0.781 3.322 1.035 6.368 2.81 8.909 5.192l108.8 109.227c2.976 3.040 6.758 5.162 10.899 6.113 4.147 0.952 8.474 0.693 12.474-0.746s7.507-3.996 10.093-7.368c2.592-3.372 4.154-7.417 4.512-11.653 3.29-45.405-4.595-90.926-22.97-132.579-18.368-41.653-46.669-78.17-82.419-106.355v0z" />
<glyph unicode="&#xe942;" glyph-name="settings" d="M1024 380.587v134.4c0 4.482-0.883 8.921-2.598 13.062s-4.23 7.905-7.398 11.074c-3.168 3.169-6.931 5.684-11.072 7.399s-8.582 2.598-13.062 2.598h-32c-7.424-0.008-14.65 2.404-20.576 6.869s-10.24 10.742-12.282 17.878c-6.918 26.557-16.64 52.302-29.011 76.8-3.962 6.713-5.568 14.557-4.563 22.287s4.563 14.902 10.112 20.38l22.182 22.187c6.387 6.399 9.971 15.068 9.971 24.107s-3.584 17.708-9.971 24.106l-96.851 93.014c-3.174 3.225-6.963 5.786-11.136 7.534-4.179 1.748-8.659 2.648-13.184 2.648s-9.005-0.9-13.184-2.648c-4.173-1.748-7.962-4.309-11.136-7.534l-22.189-22.187c-5.318-5.061-12.096-8.32-19.366-9.315-7.277-0.996-14.682 0.323-21.165 3.768-24.115 12.892-49.402 23.464-75.52 31.574-7.146 1.943-13.466 6.157-18.006 12.006s-7.056 13.016-7.167 20.42v32.854c0 9.053-3.596 17.735-9.997 24.136s-15.084 9.997-24.136 9.997h-135.68c-4.482 0-8.921-0.883-13.062-2.598s-7.905-4.23-11.074-7.399c-3.169-3.17-5.684-6.932-7.399-11.074s-2.598-8.58-2.598-13.062v-32.854c-0.26-7.665-3.032-15.033-7.889-20.969s-11.53-10.111-18.991-11.884c-26.54-7.713-52.262-18.002-76.8-30.72-6.621-4.165-14.473-5.929-22.24-4.997s-14.979 4.504-20.427 10.117l-22.186 22.187c-3.14 3.212-6.89 5.764-11.029 7.507s-8.586 2.641-13.078 2.641c-4.492 0-8.938-0.898-13.078-2.641s-7.889-4.295-11.029-7.507l-90.88-94.72c-6.383-6.399-9.968-15.069-9.968-24.107s3.585-17.708 9.968-24.107l22.187-22.186c5.545-5.478 9.103-12.651 10.108-20.38s-0.6-15.573-4.561-22.287c-12.993-24.662-23.567-50.525-31.574-77.227-1.958-7.101-6.189-13.366-12.045-17.835s-13.015-6.897-20.381-6.911h-32.854c-9.053 0-17.735-3.596-24.136-9.997s-9.997-15.084-9.997-24.136v-134.4c0-9.053 3.596-17.734 9.997-24.136s15.083-9.997 24.136-9.997h32.854c7.405-0.061 14.594-2.499 20.509-6.954s10.242-10.692 12.344-17.795c7.676-26.611 18.115-52.352 31.147-76.8 3.888-6.733 5.452-14.56 4.449-22.272s-4.515-14.874-9.996-20.39l-22.187-22.189c-6.383-6.4-9.968-15.066-9.968-24.109 0-9.037 3.585-17.709 9.968-24.102l94.72-94.72c6.399-6.387 15.069-9.971 24.107-9.971s17.708 3.584 24.107 9.971l22.613 22.182c5.478 5.549 12.65 9.107 20.38 10.112s15.573-0.602 22.287-4.563c23.22-11.469 47.516-20.614 72.533-27.309 7.18-2.022 13.511-6.317 18.049-12.237 4.537-5.926 7.037-13.152 7.124-20.614v-32.429c0-9.050 3.596-17.734 9.997-24.134s15.084-9.997 24.136-9.997h133.973c9.053 0 17.734 3.597 24.136 9.997s9.997 15.085 9.997 24.134v32.429c0.111 7.405 2.627 14.573 7.167 20.422s10.861 10.061 18.006 12.006c26.703 8.006 52.565 18.579 77.224 31.571 6.483 3.443 13.888 4.762 21.165 3.77 7.277-0.998 14.048-4.256 19.373-9.318l22.182-22.182c6.477-6.413 15.213-10.010 24.32-10.010 9.114 0 17.85 3.597 24.32 10.010l94.72 94.72c6.387 6.394 9.971 15.066 9.971 24.102 0 9.043-3.584 17.709-9.971 24.109l-22.182 22.189c-5.062 5.318-8.32 12.096-9.318 19.366-0.992 7.277 0.326 14.682 3.77 21.165 13.517 23.981 24.525 49.286 32.851 75.52 2.106 7.1 6.432 13.338 12.346 17.793s13.107 6.893 20.512 6.954h32c4.627-0.006 9.21 0.93 13.466 2.751s8.102 4.489 11.29 7.841c3.194 3.353 5.67 7.32 7.283 11.66s2.323 8.963 2.093 13.587v0zM682.669 323.84c-26.266-36.794-63.537-64.288-106.44-78.528s-89.22-14.483-132.269-0.691c-43.050 13.792-80.606 40.896-107.253 77.411s-41.005 80.55-41.005 125.755c0 45.204 14.359 89.239 41.005 125.754s64.204 63.622 107.253 77.411c43.050 13.789 89.366 13.547 132.269-0.691s80.175-41.736 106.44-78.528c25.818-36.172 39.699-79.504 39.699-123.946s-13.882-87.775-39.699-123.947v0z" />
<glyph unicode="&#xe943;" glyph-name="share" d="M849.491 284.589c-30.771-0.122-60.96-8.403-87.494-23.994s-48.461-37.933-63.546-64.755l-364.797 182.186c9.89 22.002 15.004 45.851 15.004 69.974s-5.114 47.971-15.004 69.973l364.797 182.187c21.005-36.597 54.618-64.294 94.554-77.916 39.942-13.621 83.469-12.234 122.464 3.901 38.989 16.136 70.765 45.916 89.402 83.775 18.63 37.86 22.842 81.209 11.84 121.946-10.995 40.738-36.454 76.077-71.61 99.414s-77.606 33.074-119.418 27.393c-41.811-5.681-80.128-26.393-107.782-58.264s-42.758-72.721-42.49-114.917c0.198-8.021 1.056-16.012 2.56-23.893l-379.304-190.294c-24.396 24.431-55.489 41.075-89.347 47.829s-68.958 3.312-100.86-9.889c-31.901-13.201-59.17-35.567-78.357-64.27s-29.427-62.452-29.427-96.977c0-34.525 10.241-68.274 29.427-96.977s46.455-51.068 78.357-64.271c31.901-13.197 67.002-16.64 100.86-9.888s64.951 23.398 89.347 47.829l380.584-190.293c-1.504-7.878-2.362-15.872-2.56-23.891-0.083-34.554 10.093-68.352 29.235-97.114s46.394-51.194 78.298-64.454c31.904-13.261 67.027-16.755 100.915-10.035 33.894 6.72 65.024 23.347 89.453 47.782 24.435 24.429 41.062 55.565 47.782 89.453s3.226 69.011-10.035 100.915c-13.261 31.904-35.693 59.155-64.454 78.298s-62.56 29.318-97.114 29.235h-1.28z" />
<glyph unicode="&#xe944;" glyph-name="shopping-bag" d="M1024 40.109l-99.411 541.437c-3.571 20.127-14.048 38.38-29.619 51.618-15.578 13.238-35.277 20.634-55.718 20.916h-85.331v64.853c0 31.601-6.227 62.893-18.317 92.089-12.096 29.196-29.818 55.724-52.166 78.069-22.342 22.346-48.872 40.071-78.068 52.164s-60.488 18.318-92.089 18.318c-31.601 0-62.893-6.224-92.089-18.318s-55.724-29.819-78.069-52.164c-22.346-22.346-40.071-48.873-52.164-78.069s-18.317-60.488-18.317-92.089v-64.853h-85.334c-20.438-0.282-40.14-7.677-55.715-20.916s-26.048-31.491-29.619-51.618l-101.973-541.437c-2.216-12.589-1.686-25.51 1.553-37.875s9.111-23.885 17.214-33.773c8.103-9.882 18.246-17.901 29.735-23.507 11.489-5.6 24.052-8.653 36.831-8.954h850.347c13.030-0.134 25.933 2.605 37.786 8.019s22.374 13.37 30.803 23.309c8.429 9.939 14.566 21.613 17.978 34.189 3.411 12.582 4.013 25.754 1.754 38.592v0zM329.386 718.933c0 48.432 19.24 94.881 53.487 129.127s80.695 53.486 129.127 53.486c48.432 0 94.881-19.239 129.126-53.486s53.485-80.695 53.485-129.127v-64.853h-365.225v64.853zM512 269.229c-60.454 0.115-118.657 22.95-163.070 63.964-44.413 41.015-71.795 97.22-76.717 157.474h58.453c5.283-44.381 26.658-85.284 60.077-114.961s76.562-46.068 121.256-46.068c44.694 0 87.837 16.391 121.256 46.068s54.795 70.58 60.075 114.961h58.029c-4.819-60.217-32.109-116.419-76.454-157.442-44.345-41.026-102.496-63.868-162.906-63.996v0z" />
<glyph unicode="&#xe945;" glyph-name="shopping-cart" d="M933.971 704h-705.704l-37.12 193.707c-1.296 16.234-8.388 31.46-19.982 42.897s-26.915 18.322-43.165 19.397h-97.28c-8.147 0-15.961-3.237-21.722-8.998s-8.998-13.575-8.998-21.722c0-8.147 3.237-15.961 8.998-21.722s13.575-8.998 21.722-8.998h97.28c0 0 3.84-2.56 4.693-10.24l115.627-661.76c1.965-24.224 13.335-46.72 31.676-62.669s42.195-24.083 66.458-22.662l597.336 66.56c23.11 4.102 43.968 16.422 58.707 34.694 14.746 18.272 22.381 41.254 21.504 64.717v295.253c1.517 25.402-7.11 50.366-23.994 69.407s-40.634 30.602-66.035 32.14v0zM341.333 85.76c-14.87 0-29.405-4.416-41.763-12.685s-21.983-20.026-27.654-33.773c-5.671-13.747-7.133-28.864-4.2-43.443s10.127-27.955 20.671-38.445c10.545-10.483 23.965-17.6 38.559-20.448 14.595-2.854 29.707-1.306 43.421 4.448 13.714 5.747 25.412 15.437 33.612 27.846 8.2 12.403 12.532 26.963 12.448 41.83-0.113 19.846-8.074 38.835-22.145 52.826s-33.107 21.843-52.949 21.843zM774.4 85.76c-14.886 0.083-29.466-4.256-41.882-12.48-12.41-8.218-22.106-19.942-27.84-33.677-5.734-13.741-7.258-28.877-4.378-43.482 2.886-14.605 10.048-28.026 20.576-38.554s23.942-17.69 38.554-20.57c14.605-2.886 29.741-1.363 43.475 4.378 13.741 5.734 25.466 15.424 33.683 27.84 8.218 12.41 12.563 26.989 12.48 41.875-0.115 19.77-8.019 38.701-21.997 52.678s-32.902 21.882-52.672 21.99z" />
<glyph unicode="&#xe947;" glyph-name="site" d="M453.973 960c-67.864-7.813-133.479-29.127-192.979-62.687s-111.683-78.689-153.475-132.726h191.147c37.654 75.204 90.544 141.752 155.307 195.413v0zM652.371 764.587c-35.61 62.070-83.348 116.338-140.371 159.573-57.023-43.235-104.761-97.503-140.373-159.573h280.744zM725.331 764.587h190.72c-41.741 53.989-93.856 99.089-153.28 132.647s-124.956 54.899-192.745 62.766c64.953-53.474 117.878-120.065 155.305-195.413v0zM269.653 700.16h-205.226c-38.094-67.62-60.137-143.092-64.427-220.586h224c3.265 75.504 18.68 149.988 45.653 220.586v0zM224 415.574h-224c4.375-77.537 26.568-153.021 64.853-220.586h205.227c-27.309 70.515-42.875 145.033-46.080 220.586v0zM298.666 130.56h-190.72c41.869-53.882 94.087-98.848 153.583-132.256 59.496-33.414 125.071-54.598 192.87-62.304-64.949 53.248-118.003 119.526-155.733 194.56v0zM372.054 130.56c35.599-61.709 83.181-115.674 139.947-158.72 56.765 43.046 104.348 97.011 139.948 158.72h-279.895zM341.333 194.989h341.336c30.246 69.83 47.59 144.568 51.2 220.586h-445.869c4.283-76.15 22.353-150.89 53.333-220.586v0zM684.8 700.16h-346.027c-30.063-69.873-47.263-144.601-50.773-220.586h447.571c-3.507 75.985-20.71 150.713-50.771 220.586v0zM569.599-64c67.8 7.706 133.377 28.89 192.871 62.304 59.494 33.408 111.712 78.374 153.581 132.256h-190.72c-37.568-75.136-90.645-141.446-155.732-194.56zM753.491 194.989h205.658c38.285 67.565 60.474 143.049 64.851 220.586h-224.429c-3.2-75.553-18.771-150.070-46.080-220.586zM799.571 479.574h224.429c-4.288 77.494-26.33 152.966-64.429 220.586h-205.651c26.976-70.598 42.387-145.082 45.651-220.586v0z" />
<glyph unicode="&#xe948;" glyph-name="star" d="M349.44 661.334l128 274.773c2.726 6.521 7.32 12.091 13.204 16.009s12.794 6.008 19.863 6.008c7.068 0 13.979-2.090 19.862-6.008s10.478-9.487 13.204-16.009l127.997-274.773c2.547-5.54 6.4-10.378 11.232-14.095s10.496-6.202 16.506-7.238l289.702-42.667c6.861-1.092 13.312-3.985 18.688-8.384s9.485-10.145 11.917-16.652c2.426-6.507 3.085-13.542 1.907-20.388s-4.154-13.256-8.614-18.576l-209.92-213.333c-4.358-4.436-7.597-9.85-9.446-15.783-1.856-5.933-2.272-12.224-1.222-18.349l49.491-302.080c1.824-7.034 1.562-14.445-0.749-21.338-2.31-6.886-6.566-12.96-12.256-17.472-5.696-4.518-12.576-7.29-19.808-7.974s-14.509 0.749-20.947 4.115l-258.984 142.080c-5.281 2.95-11.23 4.506-17.28 4.506s-11.999-1.555-17.28-4.506l-258.987-142.509c-6.243-3.328-13.307-4.8-20.36-4.25s-13.802 3.11-19.451 7.366c-5.649 4.262-9.964 10.048-12.435 16.672-2.471 6.63-2.996 13.83-1.514 20.749l49.494 302.502c1.087 6.131 0.687 12.429-1.17 18.368-1.856 5.946-5.114 11.347-9.497 15.77l-209.493 215.465c-4.68 5.037-7.938 11.228-9.441 17.937s-1.198 13.698 0.885 20.251c2.083 6.553 5.869 12.435 10.97 17.045s11.336 7.782 18.066 9.194l290.133 42.666c5.977 0.959 11.629 3.366 16.463 7.010s8.703 8.415 11.27 13.897v0z" />
<glyph unicode="&#xe949;" glyph-name="start" d="M874.24 810.24c-83.712 83.802-193.888 135.989-311.757 147.668-117.871 11.679-236.147-17.872-334.673-83.618s-171.21-163.62-205.667-276.947c-34.457-113.326-28.555-235.094 16.7-344.556 45.255-109.466 127.063-199.853 231.487-255.757 104.424-55.91 225.002-73.888 341.192-50.861 116.191 23.021 220.799 85.619 296.012 177.126 75.213 91.501 116.371 206.255 116.467 324.704 0.051 67.256-13.146 133.865-38.842 196.019s-63.386 118.637-110.918 166.221v0zM703.571 418.56l-288.851-200.109c-5.376-3.744-11.676-5.939-18.213-6.355s-13.064 0.973-18.87 4.006c-5.806 3.034-10.669 7.603-14.060 13.21s-5.182 12.032-5.177 18.579v400.216c-0.005 6.55 1.786 12.978 5.177 18.582s8.254 10.173 14.060 13.208c5.805 3.034 12.332 4.42 18.87 4.006s12.837-2.612 18.213-6.356l289.709-200.107c4.838-3.236 8.806-7.615 11.552-12.75 2.739-5.135 4.179-10.868 4.179-16.69s-1.44-11.555-4.179-16.69c-2.746-5.135-6.714-9.514-11.552-12.75h-0.858z" />
<glyph unicode="&#xe94a;" glyph-name="switch" d="M1017.171 334.239l-270.080 215.467v-124.587h-424.104v-175.788c-0.348-9.094 2.908-17.965 9.059-24.672 6.151-6.714 14.702-10.726 23.795-11.168h391.251v-88.32c-0.294-3.194 0.339-6.413 1.824-9.261 1.491-2.842 3.77-5.197 6.566-6.778 2.797-1.574 5.99-2.31 9.197-2.118 3.206 0.198 6.285 1.318 8.87 3.226l243.622 194.56c2.093 1.843 3.763 4.109 4.909 6.643 1.146 2.541 1.741 5.293 1.741 8.077s-0.595 5.537-1.741 8.074c-1.146 2.538-2.816 4.803-4.909 6.645v0zM701.011 647.412c0.173 4.483-0.544 8.956-2.099 13.163-1.562 4.207-3.93 8.065-6.982 11.354s-6.72 5.944-10.803 7.814c-4.077 1.869-8.48 2.916-12.966 3.082h-391.254v88.32c0.299 3.197-0.334 6.413-1.822 9.26s-3.768 5.2-6.565 6.779c-2.797 1.579-5.991 2.315-9.197 2.118s-6.285-1.315-8.869-3.224l-243.627-194.56c-2.088-1.841-3.761-4.107-4.907-6.644s-1.738-5.291-1.738-8.076c0-2.784 0.593-5.537 1.738-8.075s2.818-4.803 4.907-6.645l270.080-215.466v124.586h424.105v176.214z" />
<glyph unicode="&#xe94c;" glyph-name="user" d="M768 448c-32.032-36.32-71.424-65.409-115.565-85.333-44.136-19.925-92.008-30.229-140.435-30.229s-96.3 10.304-140.438 30.229c-44.138 19.924-83.531 49.013-115.562 85.333v0c-67.896 0-133.010-26.972-181.020-74.98s-74.98-113.122-74.98-181.020v-85.331c0-45.267 17.981-88.678 49.987-120.685 32.006-32 75.416-49.984 120.68-49.984h682.664c45.267 0 88.678 17.984 120.685 49.984 32 32.006 49.984 75.418 49.984 120.685v85.331c0 67.898-26.97 133.010-74.982 181.020-48.006 48.009-113.12 74.98-181.018 74.98zM712.736 473.564c112.013 111.932 113.024 292.527 2.253 403.371-110.763 110.843-291.359 109.961-403.369-1.971s-113.019-292.527-2.253-403.37c110.766-110.844 291.362-109.961 403.369 1.971z" />
<glyph unicode="&#xe94d;" glyph-name="user-data" d="M511.999 602.453c0-51.035 20.274-99.979 56.361-136.066s85.028-56.361 136.068-56.361c37.69-0.275 74.586 10.883 105.811 32v0c27.942 18.337 50.637 43.619 65.862 73.369s22.458 62.945 20.992 96.333c-1.472 33.388-11.59 65.82-29.37 94.119-17.773 28.299-42.598 51.492-72.045 67.306-29.44 15.814-62.483 23.706-95.891 22.902-33.414-0.804-66.040-10.276-94.687-27.487s-52.329-41.572-68.725-70.693c-16.396-29.121-24.943-62.003-24.804-95.422h0.426zM863.571 434.348c-9.805-9.978-20.678-18.849-32.422-26.453-37.824-25.403-82.445-38.787-128-38.4-45.485 0.173-89.939 13.51-128.003 38.4-11.745 7.604-22.618 16.476-32.426 26.453-46.307-11.65-87.366-38.498-116.607-76.248s-44.971-84.218-44.674-131.969v-247.462c0-11.315 4.495-22.17 12.497-30.17s18.854-12.499 30.17-12.499h557.225c11.315 0 22.17 4.499 30.17 12.499 8.006 8 12.499 18.854 12.499 30.17v247.462c0.346 47.635-15.264 94.017-44.339 131.752s-69.939 64.652-116.090 76.465v0zM512 471.467c-27.423 38.2-42.329 83.963-42.667 130.986 0.168 30.385 6.332 60.438 18.141 88.435s29.028 53.388 50.673 74.714c21.644 21.327 47.285 38.17 75.453 49.564 28.166 11.394 58.31 17.115 88.691 16.833 22.131 0.627 44.25-1.814 65.709-7.253-8.109 38.241-29.107 72.538-59.469 97.157-30.368 24.619-68.269 38.067-107.358 38.096h-377.173v-189.867c0.175-3.020-0.27-6.042-1.307-8.884s-2.643-5.441-4.721-7.638c-2.077-2.198-4.583-3.948-7.362-5.142s-5.772-1.807-8.797-1.802h-201.813v-389.12c0-45.265 17.981-88.676 49.987-120.683 32.006-32 75.416-49.984 120.68-49.984h163.413v37.549c-0.357 54.72 16.685 108.136 48.664 152.539s77.244 77.496 129.256 94.499v0zM16.64 775.68h161.28c4.526 0 8.867 1.798 12.068 4.998s4.999 7.542 4.999 12.068v150.613c0.122 4.16-1.36 8.208-4.14 11.306s-6.644 5.007-10.794 5.334h-4.266c-1.775-0.021-3.526-0.412-5.142-1.146s-3.061-1.797-4.244-3.12l-161.28-150.613c-1.566-1.214-2.839-2.765-3.725-4.538s-1.363-3.721-1.395-5.702v-5.547c0.707-3.878 2.768-7.379 5.815-9.879s6.883-3.838 10.825-3.774v0z" />
<glyph unicode="&#xe94e;" glyph-name="users" d="M704.851 602.452c0.096-31.7-7.648-62.932-22.534-90.92s-36.461-51.864-62.797-69.507v0c-31.26-21.044-68.13-32.195-105.814-32-37.787 0.004-74.737 11.133-106.239 32-26.258 17.724-47.768 41.617-62.645 69.587s-22.668 59.16-22.689 90.84c-0.056 25.326 4.877 50.415 14.517 73.834s23.798 44.711 41.667 62.659c17.869 17.948 39.097 32.2 62.474 41.944s48.444 14.787 73.77 14.844c50.742-0.784 99.139-21.493 134.746-57.656 35.603-36.163 55.552-84.877 55.546-135.624v0zM833.28 226.131v-247.462c0-11.315-4.493-22.17-12.499-30.17-8-8-18.854-12.499-30.17-12.499h-554.664c-11.316 0-22.168 4.499-30.17 12.499s-12.497 18.854-12.497 30.17v247.462c-0.369 47.584 15.178 93.917 44.17 131.644s69.761 64.68 115.83 76.573c9.808-9.978 20.682-18.849 32.427-26.453 38.064-24.89 82.52-38.227 128-38.4 45.56-0.387 90.176 12.997 128.002 38.4v0c11.744 7.604 22.618 16.476 32.422 26.453 45.914-12.054 86.49-39.076 115.315-76.788s44.25-83.959 43.834-131.428v0zM346.453 829.867c0.017-21.64-5.454-42.932-15.9-61.885s-25.527-34.947-43.833-46.488v0c-21.116-14.007-45.914-21.432-71.253-21.334-25.485-0.183-50.444 7.245-71.68 21.334-17.748 11.96-32.284 28.099-42.328 46.996s-15.288 39.975-15.272 61.377c-0.003 16.99 3.378 33.811 9.943 49.482s16.186 29.877 28.298 41.791c12.113 11.914 26.476 21.298 42.253 27.603s32.652 9.407 49.639 9.124c16.988 0.283 33.862-2.819 49.639-9.124s30.14-15.689 42.253-27.603c12.113-11.914 21.732-26.12 28.298-41.791s9.946-32.492 9.943-49.482v0zM322.56 470.613c-52.401-14.731-98.456-46.385-130.987-90.027h-160.853c-7.695 0-15.074 3.057-20.516 8.498s-8.498 12.82-8.498 20.516v166.4c-0.030 32.033 10.543 63.175 30.070 88.568s46.91 43.609 77.876 51.805c6.764-6.416 14.041-12.266 21.76-17.493 25.33-16.744 54.971-25.785 85.334-26.027 30.319-0.314 60.039 8.453 85.333 25.173-13.596-30.022-20.58-62.616-20.48-95.573-0.339-47.13 13.975-93.199 40.96-131.84v0zM937.389 829.866c-0.077-21.478-5.453-42.606-15.648-61.51-10.202-18.904-24.902-35.001-42.81-46.863v0c-21.114-14.008-45.914-21.432-71.251-21.334-25.446 0.068-50.336 7.475-71.68 21.334-17.933 11.834-32.653 27.925-42.854 46.835s-15.558 40.052-15.597 61.538c0 33.948 13.485 66.505 37.491 90.51 24 24.005 56.557 37.49 90.509 37.49 17.126 0.514 34.189-2.417 50.163-8.619s30.541-15.549 42.835-27.486c12.294-11.937 22.074-26.222 28.742-42.008s10.106-32.749 10.099-49.887v0zM1024 576v-166.4c-0.109-7.661-3.2-14.977-8.621-20.394-5.414-5.418-12.73-8.51-20.39-8.62h-162.989c-32.282 43.706-78.234 75.389-130.56 90.027 27.59 38.438 42.509 84.525 42.669 131.84-0.019 32.625-6.848 64.888-20.058 94.72 25.53-16.12 55.149-24.563 85.338-24.32 30.394 0.016 60.102 9.076 85.331 26.027v0c7.802 5.116 15.085 10.974 21.76 17.493 30.925-8.211 58.253-26.444 77.709-51.844s29.939-56.534 29.811-88.529v0z" />
<glyph unicode="&#xe950;" glyph-name="wallet" d="M647.68 299.949c0.333-40.525 16.576-79.29 45.229-107.949 29.126-28.992 68.557-45.254 109.651-45.229h221.44v-40.102c0-45.267-17.984-88.672-49.984-120.678-32.006-32.006-75.418-49.99-120.685-49.99h-682.664c-45.264 0-88.674 17.984-120.68 49.99s-49.987 75.411-49.987 120.678v386.558c0 45.264 17.981 88.673 49.987 120.68s75.416 49.987 120.68 49.987h682.664c31.878 0.104 63.123-8.928 90.029-26.027 24.614-15.283 44.928-36.579 59.040-61.884 14.106-25.304 21.542-53.784 21.6-82.756v-38.4h-221.44c-41.043-0.113-80.371-16.467-109.395-45.487-29.018-29.021-45.37-68.351-45.485-109.391zM683.091 299.949c0.576-32.070 13.574-62.669 36.269-85.338 23.194-23.206 54.656-36.25 87.469-36.262h217.171v247.465h-217.171c-16.429 0.002-32.698-3.268-47.853-9.619-15.149-6.351-28.89-15.657-40.403-27.373-11.52-11.716-20.589-25.61-26.682-40.869s-9.082-31.581-8.8-48.004v0zM773.549 261.549c-5.043 0-10.035 0.992-14.694 2.918-4.659 1.933-8.896 4.762-12.461 8.326s-6.394 7.802-8.326 12.461c-1.926 4.659-2.918 9.651-2.918 14.694s0.992 10.035 2.918 14.694c1.933 4.659 4.762 8.891 8.326 12.456s7.802 6.394 12.461 8.324c4.659 1.93 9.651 2.923 14.694 2.923s10.035-0.993 14.694-2.923c4.659-1.93 8.89-4.758 12.454-8.324s6.394-7.797 8.326-12.456c1.933-4.659 2.925-9.651 2.925-14.694 0-10.189-4.045-19.955-11.251-27.155-7.2-7.2-16.966-11.245-27.149-11.245v0zM877.651 700.16l-27.302 94.72-327.255-94.72h354.557zM137.814 700.16h267.52l436.055 126.293-21.338 72.533c-6.438 21.17-20.851 39.011-40.192 49.757-19.347 10.746-42.106 13.559-63.488 7.843l-521.384-150.613c-21.359-6.437-39.349-20.982-50.115-40.522s-13.453-42.516-7.485-64.012l0.427-1.28z" />
<glyph unicode="&#xe951;" glyph-name="warning" d="M1015.469 49.491l-433.496 867.842c-6.456 13.042-16.429 24.019-28.794 31.694s-26.627 11.742-41.18 11.742c-14.552 0-28.815-4.067-41.179-11.742s-22.337-18.652-28.794-31.694l-433.493-867.842c-5.947-11.942-8.751-25.21-8.147-38.541s4.596-26.285 11.6-37.645c7.003-11.36 16.787-20.749 28.426-27.27 11.639-6.528 24.75-9.984 38.095-10.035h866.984c13.344 0.051 26.458 3.507 38.099 10.035 11.635 6.522 21.421 15.91 28.422 27.27s10.995 24.314 11.603 37.645c0.602 13.331-2.202 26.598-8.147 38.541zM482.987 622.934h55.040c4.63 0.006 9.212-0.931 13.469-2.751s8.098-4.489 11.291-7.842c3.193-3.352 5.67-7.32 7.282-11.66s2.323-8.963 2.092-13.587l-11.947-291.414h-98.986l-12.373 291.414c-0.172 4.609 0.582 9.206 2.215 13.52s4.113 8.257 7.295 11.597c3.181 3.34 6.998 6.010 11.228 7.852s8.783 2.818 13.396 2.872v0zM561.92 139.091c-13.56-12.147-31.299-18.566-49.493-17.92-18.458-0.691-36.479 5.722-50.347 17.92-5.946 5.427-10.717 12.006-14.020 19.347s-5.065 15.277-5.18 23.322c-0.143 8.525 1.491 16.986 4.796 24.845s8.211 14.95 14.404 20.806c6.565 6.528 14.354 11.699 22.92 15.213s17.741 5.306 27 5.267c18.275 0.672 36.072-5.92 49.493-18.342 6.193-5.862 11.099-12.947 14.404-20.806s4.939-16.326 4.796-24.851c0.238-8.371-1.314-16.698-4.551-24.422s-8.086-14.675-14.222-20.378v0z" />
</font>
</defs>
</svg>
